<svg id="Layer_1" data-name="Layer 1" xmlns="http://www.w3.org/2000/svg" viewBox="0 0 200 200"><defs><style>.cls-1{fill:#fff;}.cls-2{fill:#231f20;}</style></defs><title>Untitled-1</title><path class="cls-1" d="M103.78,138.31a5.59,5.59,0,0,0-7.59,0"/><path class="cls-2" d="M132.69,58.5v73.64a1.23,1.23,0,0,1-2.07.91L115,118.58l-10.09-9.31a7.25,7.25,0,0,0-9.85,0L85,118.64,69.61,132.91a1.24,1.24,0,0,1-2.08-.9l-.18-73.49a7.14,7.14,0,0,1,7.13-7.16h51.07a7.14,7.14,0,0,1,7.14,7.14Zm-1.05-29.21H54.05a8.82,8.82,0,0,0-8.82,8.85l.3,121.2a11.37,11.37,0,0,0,19.12,8.3l33.6-31.23a2.54,2.54,0,0,1,3.46,0l34,31.34a11.38,11.38,0,0,0,19.09-8.36V38.12a8.83,8.83,0,0,0-8.83-8.83Z"/></svg>