<svg id="Layer_1" data-name="Layer 1" xmlns="http://www.w3.org/2000/svg" viewBox="0 0 200 200"><defs><style>.cls-1{fill:#231f20;}</style></defs><title>Untitled-1</title><path class="cls-1" d="M64.05,49.42h0M136,77v66a7.53,7.53,0,0,1-7.52,7.53H71.57A7.53,7.53,0,0,1,64.05,143V57a7.53,7.53,0,0,1,7.52-7.53H129a7,7,0,0,1,7,7ZM136,29.5H64.53A20.47,20.47,0,0,0,44.05,50V150A20.47,20.47,0,0,0,64.53,170.5h70.94A20.47,20.47,0,0,0,156,150V49.43A19.93,19.93,0,0,0,136,29.5Z"/><rect class="cls-1" x="75.09" y="60.42" width="49.79" height="30.13" rx="6.2"/><rect class="cls-1" x="75.09" y="106.17" width="21.97" height="12.66" rx="2.64"/><rect class="cls-1" x="102.91" y="106.17" width="21.97" height="12.66" rx="2.64"/><rect class="cls-1" x="75.09" y="122.57" width="21.97" height="12.66" rx="2.64"/><rect class="cls-1" x="102.91" y="122.57" width="21.97" height="12.66" rx="2.64"/></svg>