<svg id="Layer_1" data-name="Layer 1" xmlns="http://www.w3.org/2000/svg" viewBox="0 0 200 200"><defs><style>.cls-1{fill:#231f20;}.cls-2{fill:none;stroke:#231f20;stroke-miterlimit:10;stroke-width:20px;}</style></defs><title>Untitled-1</title><path class="cls-1" d="M71.3,150.49v20H49.41a19.93,19.93,0,0,1-19.93-19.93V128.69h20v21.8Z"/><path class="cls-1" d="M170.47,128.69v21.87a19.93,19.93,0,0,1-19.93,19.93H128.69v-20h21.78v-21.8Z"/><path class="cls-1" d="M170.47,49.43V71.3h-20V49.5H128.69v-20h21.85A19.93,19.93,0,0,1,170.47,49.43Z"/><path class="cls-1" d="M71.3,29.5v20H49.48V71.3h-20V49.43A19.93,19.93,0,0,1,49.41,29.5Z"/><circle class="cls-2" cx="99.98" cy="100.02" r="24.9"/></svg>