<svg id="Layer_1" data-name="Layer 1" xmlns="http://www.w3.org/2000/svg" viewBox="0 0 200 200"><defs><style>.cls-1,.cls-3{fill:#fff;}.cls-2{fill:#231f20;}.cls-3{stroke:#231f20;stroke-linecap:round;stroke-miterlimit:10;stroke-width:20px;}</style></defs><title>Untitled-1</title><polygon class="cls-1" points="78.31 133.99 67.73 76.07 159.34 76.07 151.61 133.99 78.31 133.99"/><path class="cls-2" d="M147.92,86.07,142.85,124H86.65L79.72,86.07h68.2m13.19-20H65.89a8.47,8.47,0,0,0-8.3,10.14l11.14,61A8.47,8.47,0,0,0,77,144H153a8.47,8.47,0,0,0,8.3-6.8l8.14-61a8.47,8.47,0,0,0-8.3-10.14Z"/><circle class="cls-2" cx="145.54" cy="160.57" r="10"/><circle class="cls-2" cx="83.26" cy="160.57" r="10"/><path class="cls-3" d="M78.51,133.58,61.85,42.14a2.93,2.93,0,0,0-2.91-2.42l-19.68.17"/></svg>