<svg id="Layer_1" data-name="Layer 1" xmlns="http://www.w3.org/2000/svg" viewBox="0 0 200 200"><defs><style>.cls-1{fill:#231f20;}.cls-2{fill:none;stroke:#231f20;stroke-linecap:round;stroke-miterlimit:10;stroke-width:20px;}</style></defs><title>Untitled-1</title><path class="cls-1" d="M50.21,49h0m99.9,27.6v29a7.52,7.52,0,0,1-7.52,7.52H57.73a7.52,7.52,0,0,1-7.52-7.52V56.58a7.52,7.52,0,0,1,7.52-7.52h85.4a7,7,0,0,1,7,7Zm.07-47.51H50.68A20.47,20.47,0,0,0,30.21,49.54v63a20.47,20.47,0,0,0,20.47,20.48h98.95a20.48,20.48,0,0,0,20.48-20.48V49a19.93,19.93,0,0,0-19.93-19.93Z"/><line class="cls-2" x1="55.53" y1="160.54" x2="143.84" y2="160.54"/><line class="cls-2" x1="100.16" y1="124.97" x2="100.16" y2="159.96"/></svg>