<svg id="Layer_1" data-name="Layer 1" xmlns="http://www.w3.org/2000/svg" viewBox="0 0 200 200"><defs><style>.cls-1{fill:#231f20;}.cls-2{fill:none;}</style></defs><title>Untitled-1</title><path class="cls-1" d="M100,49.3A50.72,50.72,0,1,1,49.26,100,50.78,50.78,0,0,1,100,49.3m0-20A70.72,70.72,0,1,0,170.7,100,70.71,70.71,0,0,0,100,29.3Z"/><path class="cls-1" d="M100,94.86A5.14,5.14,0,1,1,94.86,100,5.14,5.14,0,0,1,100,94.86m0-10A15.14,15.14,0,1,0,115.14,100,15.14,15.14,0,0,0,100,84.86Z"/><path class="cls-2" d="M100,68.72h0V100h31.3A31.31,31.31,0,0,0,100,68.72Z"/><path class="cls-2" d="M100,50.72v6.75h0A42.54,42.54,0,0,1,142.54,100h6.72V50.72Z"/><path d="M105.66,57.84A5,5,0,0,0,100,62.78h0v1.31A5,5,0,0,0,104.33,69,31.37,31.37,0,0,1,131,95.65a5,5,0,0,0,4.94,4.35h1.3a5,5,0,0,0,4.94-5.69A42.55,42.55,0,0,0,105.66,57.84Z"/></svg>