<svg id="Layer_1" data-name="Layer 1" xmlns="http://www.w3.org/2000/svg" viewBox="0 0 200 200"><defs><style>.cls-1{fill:#231f20;}.cls-2{fill:none;stroke:#231f20;stroke-miterlimit:10;stroke-width:20px;}</style></defs><title>Untitled-1</title><path class="cls-1" d="M49.48,49.45h0m101,27.6v66a7.57,7.57,0,0,1-7.61,7.52H57.09A7.57,7.57,0,0,1,49.48,143V57.07a7.57,7.57,0,0,1,7.61-7.53h86.33a7,7,0,0,1,7.06,7Zm.07-47.51H50A20.6,20.6,0,0,0,29.26,50v100A20.59,20.59,0,0,0,50,170.53H150a20.59,20.59,0,0,0,20.71-20.48V49.47a20,20,0,0,0-20.15-19.93Z"/><line class="cls-2" x1="79.61" y1="37.83" x2="79.61" y2="157.83"/><line class="cls-2" x1="119.95" y1="37.83" x2="119.95" y2="157.83"/><line class="cls-2" x1="160" y1="79.83" x2="40" y2="79.83"/><line class="cls-2" x1="160" y1="120.17" x2="40" y2="120.17"/></svg>