<svg id="Layer_1" data-name="Layer 1" xmlns="http://www.w3.org/2000/svg" viewBox="0 0 200 200"><title>Untitled-1</title><path d="M143.89,138.74,142,150.52h-3.43v-9.94a38.06,38.06,0,0,0,5.36-1.84m-87.78,0a38.64,38.64,0,0,0,5.37,1.84v9.94H58l-1.93-11.78M100,29.5A70.49,70.49,0,0,0,29.5,100l10,61.05a9.67,9.67,0,0,0,9.66,9.66H59.5v-.19H71.09a10.39,10.39,0,0,0,10.39-10.38V132.2a10.39,10.39,0,0,0-10.39-10.38,18.07,18.07,0,0,1-16.42-10.53A39.55,39.55,0,0,1,55.6,76,50.53,50.53,0,0,1,100,49.5a49.21,49.21,0,0,1,46.82,33.93,38.36,38.36,0,0,1-.59,25.44l-.9,2.42a18.06,18.06,0,0,1-16.42,10.53,10.38,10.38,0,0,0-10.38,10.38v27.94a10.38,10.38,0,0,0,10.38,10.38H140.5v.19h10.34a9.66,9.66,0,0,0,9.66-9.66l10-61.05A70.5,70.5,0,0,0,100,29.5Z"/></svg>