<svg id="Layer_1" data-name="Layer 1" xmlns="http://www.w3.org/2000/svg" viewBox="0 0 200 200"><defs><style>.cls-1{fill:#231f20;}</style></defs><title>Untitled-1</title><path class="cls-1" d="M101,49.53A50.5,50.5,0,1,1,50.51,100,50.56,50.56,0,0,1,101,49.53m0-20h0A70.49,70.49,0,0,0,30.51,100h0a70.5,70.5,0,0,0,70.5,70.5h0A70.5,70.5,0,0,0,171.5,100h0A70.49,70.49,0,0,0,101,29.53Z"/><path class="cls-1" d="M100,49.53A50.5,50.5,0,1,1,49.5,100,50.56,50.56,0,0,1,100,49.53m0-20A70.5,70.5,0,1,0,170.5,100,70.49,70.49,0,0,0,100,29.53Z"/><path class="cls-1" d="M100.27,64.75c11.63,0,21.9,5.93,21.9,18.1,0,8.63-5.09,12.62-9.87,16.06-5.84,4.24-8.08,5.84-8.08,11.32v2.65H92.34l0-3c-.49-7.48,3.3-12.21,8.88-16.06,4.64-3.29,7.68-5.48,7.68-10.22,0-5.89-4.54-8.38-9.32-8.38-6.29,0-9.58,4.29-9.63,9.83H77.83C77.38,70.18,89.05,64.75,100.27,64.75Zm-1.79,56.41c4.14,0,7.58,2.89,7.58,7s-3.44,7-7.58,7-7.53-2.89-7.53-7S94.34,121.16,98.48,121.16Z"/></svg>