<svg id="Layer_1" data-name="Layer 1" xmlns="http://www.w3.org/2000/svg" viewBox="0 0 200 200"><defs><style>.cls-1{fill:#231f20;}.cls-2,.cls-3{fill:#fff;}.cls-3{stroke:#231f20;stroke-linecap:round;stroke-linejoin:round;stroke-width:20px;}</style></defs><title>Untitled-1</title><path class="cls-1" d="M170,69.26c-.06-.15-.13-.3-.2-.45.07.13.13.27.19.41A.06.06,0,0,1,170,69.26Z"/><path class="cls-2" d="M100,123.41A23.41,23.41,0,1,1,123.41,100,23.43,23.43,0,0,1,100,123.41Z"/><path class="cls-1" d="M100,86.59A13.41,13.41,0,1,1,86.59,100,13.43,13.43,0,0,1,100,86.59m0-20A33.41,33.41,0,1,0,133.41,100,33.41,33.41,0,0,0,100,66.59Z"/><line class="cls-3" x1="99.99" y1="39.25" x2="99.99" y2="52.78"/><line class="cls-3" x1="57.05" y1="57.08" x2="66.61" y2="66.65"/><line class="cls-3" x1="39.3" y1="100.06" x2="52.82" y2="100.06"/><line class="cls-3" x1="57.13" y1="143.01" x2="66.69" y2="133.44"/><line class="cls-3" x1="100.11" y1="160.76" x2="100.11" y2="147.24"/><line class="cls-3" x1="143.05" y1="142.93" x2="133.49" y2="133.36"/><line class="cls-3" x1="160.81" y1="99.95" x2="147.28" y2="99.95"/><line class="cls-3" x1="142.97" y1="57" x2="133.41" y2="66.57"/></svg>