<svg id="Layer_1" data-name="Layer 1" xmlns="http://www.w3.org/2000/svg" viewBox="0 0 200 200"><defs><style>.cls-1{fill:#231f20;}</style></defs><title>Untitled-1</title><path class="cls-1" d="M129.62,53.44c-10.51-.56-53.73-.94-64.39.21C24,62.92,30.42,119.84,70.56,122H65.27c1,.2,45.62-.1,56.44,0,1.31.62,14.06-1,18.58-7.77,11.15-13.3,3.39-31.32-11.25-36-4-1-44.78,0-55.69-.32C63,76.64,56.46,94.38,71.52,97.9c1.71.28,16.47,0,32,.06,12.1.64,25.66-2.28,21,3.76-.56.16-1.26.42-1,.3H70.16c-18.1-2.9-16.28-26.82,0-29,0,0,53.86,0,53.42,0h0a27,27,0,0,1,26.82,29.51c-2.93,23.52-24.75,25-31.85,24.35H42.67c-3.35.29-1-.75-7,.81-8.28,2.85-8.14,15.09-.33,18.35,7,2,13.35.31,34.87.84,39.72-.77,59.93,2.88,74.51-5C186.54,119.68,174.61,59.85,129.62,53.44Z"/></svg>