<svg id="Layer_1" data-name="Layer 1" xmlns="http://www.w3.org/2000/svg" viewBox="0 0 200 200"><defs><style>.cls-1{fill:#231f20;}.cls-2{fill:none;stroke:#231f20;stroke-miterlimit:10;stroke-width:20px;}</style></defs><title>Untitled-1</title><path class="cls-1" d="M100.16,29.11a58.29,58.29,0,0,0-58.3,58.28v75.7a7.63,7.63,0,0,0,7.64,7.63H85.29a7.63,7.63,0,0,0,7.63-7.63V87a7.53,7.53,0,0,1,6.41-7.56,7.35,7.35,0,0,1,8.26,7.27v76.35a7.63,7.63,0,0,0,7.64,7.63h35.59a7.63,7.63,0,0,0,7.63-7.63V87.39A58.29,58.29,0,0,0,100.16,29.11Zm34.72,58.31v56.09a3.64,3.64,0,0,1-3.64,3.64h0a3.64,3.64,0,0,1-3.65-3.64V87.38c0-14.9-11.65-27.53-26.55-27.95A27.35,27.35,0,0,0,72.92,86.74v56.67a3.74,3.74,0,0,1-3.74,3.74h0a3.74,3.74,0,0,1-3.75-3.74v-56a34.73,34.73,0,0,1,69.45,0Z"/><line class="cls-2" x1="50.7" y1="142.08" x2="84.93" y2="142.08"/><line class="cls-2" x1="115.39" y1="142.08" x2="149.62" y2="142.08"/></svg>