<svg id="Layer_1" data-name="Layer 1" xmlns="http://www.w3.org/2000/svg" viewBox="0 0 200 200"><defs><style>.cls-1{fill:#fff;}.cls-2{fill:#231f20;}</style></defs><title>Untitled-1</title><circle class="cls-1" cx="100" cy="100" r="60.7"/><path class="cls-2" d="M100,49.3A50.7,50.7,0,1,1,49.3,100,50.77,50.77,0,0,1,100,49.3m0-20A70.7,70.7,0,1,0,170.7,100,70.71,70.71,0,0,0,100,29.3Z"/><path class="cls-2" d="M132.72,121.5A39.22,39.22,0,0,1,74,129.81a39.26,39.26,0,0,1,4.58-62.53,4.39,4.39,0,0,1,6.74,4.21,39.19,39.19,0,0,0,43.24,43.23A4.4,4.4,0,0,1,132.72,121.5Z"/></svg>