<svg id="Layer_1" data-name="Layer 1" xmlns="http://www.w3.org/2000/svg" viewBox="0 0 200 200"><defs><style>.cls-1{fill:#231f20;}.cls-2{fill:none;}</style></defs><title>Untitled-1</title><path class="cls-1" d="M50.69,149.64v0h98.93v0Z"/><rect class="cls-2" x="70.55" y="99.99" width="59.22" height="0.03"/><rect class="cls-1" x="50.36" y="129.64" width="0.33" height="20"/><rect class="cls-1" x="149.62" y="129.64" width="0.02" height="20"/><path class="cls-1" d="M100.16,29.5A58.24,58.24,0,0,0,41.92,87.73c0,1.5.06,3,.17,4.48v40.43A13.32,13.32,0,0,0,55.41,146H144.9a13.32,13.32,0,0,0,13.32-13.33V92.33c.12-1.51.18-3,.18-4.6A58.24,58.24,0,0,0,100.16,29.5Zm34.76,93H65.4V87.69a34.76,34.76,0,0,1,69.52,0Z"/><path class="cls-1" d="M79.51,151.69c0,10.51,9.15,19,20.44,19s20.43-8.53,20.43-19c0-.18,0-.34,0-.51H79.54C79.53,151.35,79.51,151.51,79.51,151.69Z"/></svg>