<svg id="Layer_1" data-name="Layer 1" xmlns="http://www.w3.org/2000/svg" viewBox="0 0 200 200"><defs><style>.cls-1{fill:#231f20;}</style></defs><title>Untitled-1</title><path class="cls-1" d="M83.83,110.16a34.59,34.59,0,0,1,34.56,34.56v5.83H49.26v-5.83a34.6,34.6,0,0,1,34.57-34.56m0-20h0a54.57,54.57,0,0,0-54.57,54.56v19.73a6.11,6.11,0,0,0,6.1,6.1h96.93a6.1,6.1,0,0,0,6.1-6.1V144.72A54.56,54.56,0,0,0,83.83,90.16Z"/><path class="cls-1" d="M149.56,58.66A27.72,27.72,0,0,1,112.75,83a5,5,0,0,1-2.24-8,27.71,27.71,0,0,0,.09-36.26,5.11,5.11,0,0,1,2.23-8.12,27.73,27.73,0,0,1,36.73,28Z"/><path class="cls-1" d="M111.54,56.85A27.72,27.72,0,1,1,100,34.33,27.67,27.67,0,0,1,111.54,56.85Z"/><path class="cls-1" d="M157.71,106.14a54.41,54.41,0,0,0-26.18-14.56,2.86,2.86,0,0,0-2.67,4.84c.38.36.77.73,1.14,1.11a54.45,54.45,0,0,1,13.67,22.85,34.33,34.33,0,0,1,10,24.34v5.83H146v20h21.61a6.1,6.1,0,0,0,6.1-6.1V144.72A54.39,54.39,0,0,0,157.71,106.14Z"/></svg>