<svg id="Layer_1" data-name="Layer 1" xmlns="http://www.w3.org/2000/svg" viewBox="0 0 200 200"><defs><style>.cls-1{fill:#231f20;}</style></defs><title>Untitled-1</title><path class="cls-1" d="M155.69,91a44.79,44.79,0,0,0,3.05-18.29,45.23,45.23,0,0,0-90.37-.45,35.14,35.14,0,0,0-5.06-.37,34,34,0,0,0-3,67.91h87.37a25.6,25.6,0,0,0,22.39-20,24.74,24.74,0,0,0,.59-5.48A25.58,25.58,0,0,0,155.69,91Zm-9.37,28.8a5.9,5.9,0,0,1-1.21.13,6.06,6.06,0,0,1-1.21-.13H65.2a13.14,13.14,0,0,1-1.89.13,13.42,13.42,0,0,1-1.91-.13A14,14,0,1,1,74.84,97.93s0,0,0,0l.07.1s0,0,0,0a10.07,10.07,0,0,0,19.15-4.37,10,10,0,0,0-2.21-6.29s-.06-.11-.08-.16A25,25,0,0,1,88.32,73.8,25.24,25.24,0,1,1,130,93.61s0,0,0,0c-.18.16-.38.32-.57.46l0,0a7.3,7.3,0,0,0-.82.85,10,10,0,0,0,13.6,14.51l0,0,.1-.08v0a5.6,5.6,0,0,1,5.17-.24,5.53,5.53,0,0,1,3.11,3.93A5.62,5.62,0,0,1,146.32,119.79Z"/><path class="cls-1" d="M67.78,170.73h0a10,10,0,0,1-10-10V149.65h20v11.08A10,10,0,0,1,67.78,170.73Z"/><path class="cls-1" d="M100.16,170.73h0a10,10,0,0,1-10-10V149.65h20v11.08A10,10,0,0,1,100.16,170.73Z"/><path class="cls-1" d="M132.19,170.73h0a10,10,0,0,1-10-10V149.65h20v11.08A10,10,0,0,1,132.19,170.73Z"/></svg>