<svg id="Layer_1" data-name="Layer 1" xmlns="http://www.w3.org/2000/svg" viewBox="0 0 200 200"><defs><style>.cls-1{fill:#231f20;}</style></defs><title>Untitled-1</title><path class="cls-1" d="M170,69.26c-.06-.15-.13-.3-.2-.45.07.13.13.27.19.41A.06.06,0,0,1,170,69.26Z"/><path class="cls-1" d="M170.71,73h0a9.71,9.71,0,0,1-.19,1.93c-.06.32-.14.63-.23.94s-.21.64-.34,1c-.06.14-.12.28-.19.42l-.18.39a10.14,10.14,0,0,1-1.8,2.44l-28.6,28.6A10,10,0,0,1,125,94.58l11.53-11.53H73a23.34,23.34,0,0,0,0,46.68H96.18a10,10,0,0,1,0,20H73a43.34,43.34,0,0,1,0-86.68h63.6L125,51.52a10,10,0,1,1,14.14-14.14L167.78,66c.12.12.24.24.35.37s.22.25.32.38.21.26.31.39.19.27.28.4l.27.42.24.43c.07.15.15.29.21.44s.14.3.2.45.12.3.18.45A9.89,9.89,0,0,1,170.5,71,9.73,9.73,0,0,1,170.71,73Z"/></svg>