<svg id="Layer_1" data-name="Layer 1" xmlns="http://www.w3.org/2000/svg" viewBox="0 0 200 200"><defs><style>.cls-1{fill:#fff;}.cls-2{fill:#231f20;}</style></defs><title>Untitled-1</title><circle class="cls-1" cx="100.16" cy="100.02" r="34.46"/><path class="cls-2" d="M100.16,80.55A19.47,19.47,0,1,1,80.7,100a19.48,19.48,0,0,1,19.46-19.47m0-30A49.47,49.47,0,1,0,149.62,100a49.46,49.46,0,0,0-49.46-49.47Z"/><polygon class="cls-1" points="92.82 52.89 95.1 38.8 104.72 38.8 107 52.89 92.82 52.89"/><path class="cls-2" d="M105.22,35.75h0m3.68-6.46h-18a4.37,4.37,0,0,0-4.45,3.42L81.65,62.39h36.52l-4.81-29.66a4.38,4.38,0,0,0-4.46-3.44Z"/><polygon class="cls-1" points="44.53 73.64 49.34 65.31 62.68 70.37 55.59 82.66 44.53 73.64"/><path class="cls-2" d="M47.09,54.55a4.59,4.59,0,0,0-3.89,2.39l-9,15.57a4.38,4.38,0,0,0,.74,5.57l23.3,19L76.49,65.46,48.4,54.79a3.7,3.7,0,0,0-1.31-.24Z"/><polygon class="cls-1" points="44.6 126.52 55.67 117.5 62.76 129.79 49.41 134.85 44.6 126.52"/><path class="cls-2" d="M58.31,103.08,35,122.08a4.37,4.37,0,0,0-.74,5.58l9,15.57a4.58,4.58,0,0,0,3.88,2.38,3.73,3.73,0,0,0,1.31-.23l28.1-10.67L58.31,103.08Z"/><polygon class="cls-1" points="95.25 161.23 92.97 147.14 107.16 147.14 104.87 161.23 95.25 161.23"/><path class="cls-2" d="M118.32,137.64H81.81l4.8,29.66a4.38,4.38,0,0,0,4.47,3.43h18a4.35,4.35,0,0,0,4.45-3.42l4.81-29.67Z"/><polygon class="cls-1" points="137.29 129.65 144.38 117.37 155.45 126.39 150.64 134.72 137.29 129.65"/><path class="cls-2" d="M141.74,103l-18.26,31.62,28.09,10.67a3.74,3.74,0,0,0,1.31.24,4.62,4.62,0,0,0,3.9-2.39l9-15.58A4.35,4.35,0,0,0,165,122l-23.29-19Z"/><polygon class="cls-1" points="137.21 70.24 150.56 65.17 155.37 73.5 144.31 82.53 137.21 70.24"/><path class="cls-2" d="M158.25,72.41h0m-5.44-18a3.65,3.65,0,0,0-1.3.24L123.4,65.32,141.66,97,165,78a4.38,4.38,0,0,0,.74-5.58l-9-15.58a4.59,4.59,0,0,0-3.88-2.38Z"/></svg>