<svg id="Layer_1" data-name="Layer 1" xmlns="http://www.w3.org/2000/svg" viewBox="0 0 200 200"><defs><style>.cls-1{fill:#231f20;}.cls-2{fill:none;stroke:#231f20;stroke-linecap:round;stroke-miterlimit:10;stroke-width:20px;}</style></defs><title>Untitled-1</title><path class="cls-1" d="M67,90a10,10,0,1,1-10,10A10,10,0,0,1,67,90m0-20a30,30,0,1,0,30,30A30,30,0,0,0,67,70Z"/><path class="cls-1" d="M133.42,130.73a10,10,0,1,1-10,10,10,10,0,0,1,10-10m0-20a30,30,0,1,0,30,30,30,30,0,0,0-30-30Z"/><path class="cls-1" d="M133.28,49.29a10.15,10.15,0,1,1-10.14,10.15,10.16,10.16,0,0,1,10.14-10.15m0-20a30.15,30.15,0,1,0,30.14,30.15,30.14,30.14,0,0,0-30.14-30.15Z"/><line class="cls-2" x1="83.43" y1="87.59" x2="112.05" y2="71.86"/><line class="cls-2" x1="112.42" y1="128.2" x2="83.43" y2="112.34"/></svg>