<svg id="Layer_1" data-name="Layer 1" xmlns="http://www.w3.org/2000/svg" viewBox="0 0 200 200"><defs><style>.cls-1{fill:#fff;}.cls-2{fill:#231f20;}.cls-3{fill:none;stroke:#231f20;stroke-linecap:round;stroke-linejoin:round;stroke-width:20px;}</style></defs><title>Untitled-1</title><path class="cls-1" d="M95.83,100c0,.48,0,1,0,1.42l-.06,0v-2.8l.06,0c0,.47,0,.94,0,1.42Z"/><path class="cls-1" d="M100.37,96.13c0,.11-.05.23-.07.34,0-.11,0-.21,0-.31Z"/><path class="cls-1" d="M105.84,100.34h0c0-.1,0-.21,0-.32C105.83,100.13,105.83,100.24,105.84,100.34Z"/><path class="cls-2" d="M100.53,69.2a34,34,0,0,0-5.84,8.12,37.82,37.82,0,0,0-3.48,10L91,87.1c-6.88-6.36-20-6.85-24.54-6.51-.26,0-.55,0-.81,0H39a10,10,0,0,1,0-20H65.25C69,60.37,86.87,59.71,100.53,69.2Z"/><path class="cls-2" d="M95.85,98.58c0,.47,0,.94,0,1.42,0-.47,0-.94,0-1.39Z"/><path class="cls-2" d="M99.66,103.51a1.62,1.62,0,0,1,0,.19h0l-.06,0a2.62,2.62,0,0,1,0-.28Z"/><path class="cls-2" d="M100.37,96.13c0,.11-.05.23-.07.34,0-.11,0-.21,0-.31Z"/><path class="cls-2" d="M105.84,100.34h0c0-.1,0-.21,0-.32C105.83,100.13,105.83,100.24,105.84,100.34Z"/><path class="cls-2" d="M110.29,97.44v.49a41.81,41.81,0,0,1-.75,7,38.37,38.37,0,0,1,.64-7C110.21,97.8,110.25,97.62,110.29,97.44Z"/><path class="cls-2" d="M114.33,88.57l-.83.45c.21-.36.43-.7.66-1C114.22,88.17,114.27,88.37,114.33,88.57Z"/><path class="cls-2" d="M149.4,139.55a60.43,60.43,0,0,1-8.42.54c-8.29,0-21-1.46-31-9a33.57,33.57,0,0,0,5.69-8.24,36.46,36.46,0,0,0,3-9c.13-.6.24-1.22.33-1.84a13.37,13.37,0,0,0,2.23,2.47c7.26,6.28,21,5.93,25.25,5.31a10,10,0,0,1,2.89,19.79Z"/><line class="cls-3" x1="142.52" y1="144.77" x2="160.5" y2="129.95"/><line class="cls-3" x1="142.52" y1="115.04" x2="160.41" y2="129.95"/><path class="cls-2" d="M157.52,67.42h0A10,10,0,0,0,150,60.57l-.57-.1c-2.61-.38-25.86-3.32-41.23,10a35.76,35.76,0,0,0-2.82,2.74,34.52,34.52,0,0,0-5.71,8.53A38.55,38.55,0,0,0,96.47,92a47.16,47.16,0,0,0-.62,6.55c0,.47,0,.94,0,1.42v0c0,.48,0,1,0,1.42,0,1.44.13,2.83.28,4.15h0l-1.09.59A14.31,14.31,0,0,1,91,112.92c-5.38,5-14.59,6.36-20.49,6.56a35.79,35.79,0,0,1-4,0,7.87,7.87,0,0,0-.84,0H39A10,10,0,0,0,31.44,136a9.9,9.9,0,0,0,1.36.18,10.17,10.17,0,0,0,.31,1.35h0A9.91,9.91,0,0,0,39,139.39H65.25c.75.05,2,.12,3.78.12,7.78,0,24.06-1.37,35.44-11.83.3-.27.59-.55.88-.84a34,34,0,0,0,6.13-8.22,36,36,0,0,0,2.85-7.17,42.55,42.55,0,0,0,1.5-11.43v0a44.17,44.17,0,0,0-.27-4.93l.74-.4a15.37,15.37,0,0,1,4.91-9.06c5.94-5.18,16.21-5.88,22.18-5.61h0c1.25,0,2.31.15,3.11.26a10,10,0,0,0,11-12.84ZM99.62,103.7h0l-.06,0a2.62,2.62,0,0,1,0-.28l.09.05A1.62,1.62,0,0,1,99.62,103.7Zm.68-7.23c0-.11,0-.21,0-.31l.06,0C100.34,96.24,100.32,96.36,100.3,96.47Zm5.52,3.87c0-.1,0-.21,0-.32,0,.11,0,.22,0,.32Zm4.47-2.41a41.81,41.81,0,0,1-.75,7,38.37,38.37,0,0,1,.64-7c0-.18.07-.36.11-.54ZM113.5,89c.21-.36.43-.7.66-1,.06.19.11.39.17.59Z"/><path class="cls-1" d="M96.13,105.59h0l-1.09.59a20.54,20.54,0,0,0,.75-4.78v-2.8l.06,0c0,.47,0,.94,0,1.42v0c0,.48,0,1,0,1.42C95.89,102.88,96,104.27,96.13,105.59Z"/><path class="cls-1" d="M99.66,103.51a1.62,1.62,0,0,1,0,.19h0l-.06,0a2.62,2.62,0,0,1,0-.28Z"/><path class="cls-1" d="M100.37,96.13c0,.11-.05.23-.07.34,0-.11,0-.21,0-.31Z"/><path class="cls-1" d="M114.33,88.57l-.83.45c.21-.36.43-.7.66-1C114.22,88.17,114.27,88.37,114.33,88.57Z"/><path class="cls-2" d="M100.37,96.13c0,.11-.05.23-.07.34,0-.11,0-.21,0-.31Z"/><path class="cls-2" d="M105.84,100.34h0c0-.1,0-.21,0-.32C105.83,100.13,105.83,100.24,105.84,100.34Z"/><path class="cls-2" d="M33.11,137.5A9,9,0,0,1,31.44,136a9.9,9.9,0,0,0,1.36.18A10.17,10.17,0,0,0,33.11,137.5Z"/><path class="cls-2" d="M96.13,105.59h0l-1.09.59a20.54,20.54,0,0,0,.75-4.78c0-.45,0-.92,0-1.39,0,.48,0,1,0,1.42C95.89,102.88,96,104.27,96.13,105.59Z"/><path class="cls-2" d="M99.66,103.51a1.62,1.62,0,0,1,0,.19h0l-.06,0a2.62,2.62,0,0,1,0-.28Z"/><path class="cls-2" d="M110.29,97.44v.49a41.81,41.81,0,0,1-.75,7,38.37,38.37,0,0,1,.64-7C110.21,97.8,110.25,97.62,110.29,97.44Z"/><path class="cls-2" d="M114.33,88.57l-.83.45c.21-.36.43-.7.66-1C114.22,88.17,114.27,88.37,114.33,88.57Z"/><path class="cls-2" d="M116.3,94.67a27.53,27.53,0,0,0-.47,5.33,44.17,44.17,0,0,0-.27-4.93Z"/><path class="cls-1" d="M110.29,97.44v.49l-.11,0C110.21,97.8,110.25,97.62,110.29,97.44Z"/><path class="cls-1" d="M114.33,88.57l-.83.45c.21-.36.43-.7.66-1C114.22,88.17,114.27,88.37,114.33,88.57Z"/><path class="cls-2" d="M99.57,103.46a2.62,2.62,0,0,0,0,.28l.06,0h0a1.62,1.62,0,0,0,0-.19Zm6.26-3.44c0,.11,0,.22,0,.32h0C105.83,100.24,105.83,100.13,105.83,100Zm8.33-12c-.23.34-.45.68-.66,1l.83-.45C114.27,88.37,114.22,88.17,114.16,88Zm1.4,7.09a44.17,44.17,0,0,1,.27,4.93,27.53,27.53,0,0,1,.47-5.33ZM110.18,98a38.37,38.37,0,0,0-.64,7,41.81,41.81,0,0,0,.75-7v-.49C110.25,97.62,110.21,97.8,110.18,98Z"/><path class="cls-1" d="M96.13,105.59h0l-1.09.59a20.54,20.54,0,0,0,.75-4.78v-2.8l.06,0c0,.47,0,.94,0,1.42v0c0,.48,0,1,0,1.42C95.89,102.88,96,104.27,96.13,105.59Z"/><path class="cls-1" d="M99.66,103.51a1.62,1.62,0,0,1,0,.19h0l-.06,0a2.62,2.62,0,0,1,0-.28Z"/><path class="cls-2" d="M100.37,96.13c0,.11-.05.23-.07.34,0-.11,0-.21,0-.31Z"/><path class="cls-2" d="M105.84,100.34h0c0-.1,0-.21,0-.32C105.83,100.13,105.83,100.24,105.84,100.34Z"/><path class="cls-2" d="M96.13,105.59h0l-1.09.59a20.54,20.54,0,0,0,.75-4.78v-2.8l.06,0c0,.47,0,.94,0,1.42v0c0,.48,0,1,0,1.42C95.89,102.88,96,104.27,96.13,105.59Z"/><path class="cls-2" d="M99.66,103.51a1.62,1.62,0,0,1,0,.19h0l-.06,0a2.62,2.62,0,0,1,0-.28Z"/><path class="cls-2" d="M110.29,97.44v.49a41.81,41.81,0,0,1-.75,7,38.37,38.37,0,0,1,.64-7C110.21,97.8,110.25,97.62,110.29,97.44Z"/><line class="cls-3" x1="142.52" y1="55.25" x2="160.5" y2="70.08"/><line class="cls-3" x1="142.52" y1="84.99" x2="160.41" y2="70.08"/></svg>