<svg id="Layer_1" data-name="Layer 1" xmlns="http://www.w3.org/2000/svg" viewBox="0 0 200 200"><defs><style>.cls-1{fill:#fff;}.cls-2{fill:#231f20;}</style></defs><title>Untitled-1</title><path class="cls-1" d="M128.93,158a13.34,13.34,0,0,1-7.21-2.12L100,141.92,78.24,155.85A13.34,13.34,0,0,1,71,158a13.48,13.48,0,0,1-10.61-5.23,13.22,13.22,0,0,1-2.34-11.54l6.53-25-20-16.37a13.38,13.38,0,0,1,7.7-23.7l25.78-1.51,9.4-24a13.38,13.38,0,0,1,24.92,0l9.4,24,25.77,1.51a13.37,13.37,0,0,1,7.7,23.7l-20,16.37,6.53,25a13.26,13.26,0,0,1-2.34,11.54A13.46,13.46,0,0,1,128.93,158Z"/><path class="cls-2" d="M100,52.09a3.33,3.33,0,0,1,3.15,2.14l10.94,28a3.36,3.36,0,0,0,3,2.14l30,1.76a3.38,3.38,0,0,1,1.94,6l-23.24,19.06a3.39,3.39,0,0,0-1.13,3.47l7.6,29.08a3.38,3.38,0,0,1-3.27,4.24,3.42,3.42,0,0,1-1.82-.54L101.8,131.21a3.39,3.39,0,0,0-3.64,0L72.85,147.43a3.38,3.38,0,0,1-5.1-3.7l7.6-29.08a3.37,3.37,0,0,0-1.12-3.47L51,92.12a3.38,3.38,0,0,1,1.94-6l30-1.76a3.36,3.36,0,0,0,3-2.14l10.94-28A3.33,3.33,0,0,1,100,52.09m0-20A23.23,23.23,0,0,0,78.21,47L71.14,65,51.76,66.17A23.37,23.37,0,0,0,38.3,107.58l15,12.31L48.4,138.67a23.2,23.2,0,0,0,4.1,20.18A23.58,23.58,0,0,0,71,168a23.34,23.34,0,0,0,12.6-3.7L100,153.8l16.35,10.47a23.34,23.34,0,0,0,12.6,3.7,23.58,23.58,0,0,0,18.53-9.12,23.17,23.17,0,0,0,4.09-20.18l-4.9-18.78,15-12.31A23.37,23.37,0,0,0,148.2,66.17L128.82,65,121.75,47A23.23,23.23,0,0,0,100,32.09Z"/></svg>