<svg id="Layer_1" data-name="Layer 1" xmlns="http://www.w3.org/2000/svg" viewBox="0 0 200 200"><defs><style>.cls-1{fill:#231f20;}.cls-2{fill:#fff;}</style></defs><title>Untitled-1</title><path class="cls-1" d="M170,69.26c-.06-.15-.13-.3-.2-.45.07.13.13.27.19.41A.06.06,0,0,1,170,69.26Z"/><circle class="cls-2" cx="100" cy="100" r="60.7"/><path class="cls-1" d="M100,49.3A50.7,50.7,0,1,1,49.3,100,50.77,50.77,0,0,1,100,49.3m0-20A70.7,70.7,0,1,0,170.7,100,70.71,70.71,0,0,0,100,29.3Z"/><rect class="cls-1" x="85.33" y="85.39" width="29.28" height="29.28"/><path class="cls-1" d="M104.61,95.39v9.28H95.33V95.39h9.28m14.32-20H81a5.69,5.69,0,0,0-5.68,5.68V119A5.69,5.69,0,0,0,81,124.67h37.92a5.69,5.69,0,0,0,5.68-5.68V81.07a5.69,5.69,0,0,0-5.68-5.68Z"/></svg>