<svg id="Layer_1" data-name="Layer 1" xmlns="http://www.w3.org/2000/svg" viewBox="0 0 200 200"><defs><style>.cls-1{fill:#231f20;}.cls-2{fill:none;stroke:#231f20;stroke-linecap:round;stroke-miterlimit:10;stroke-width:10px;}</style></defs><title>Untitled-1</title><path class="cls-1" d="M50.05,49.4h0M150,77v66a7.52,7.52,0,0,1-7.52,7.52H57.57A7.53,7.53,0,0,1,50.05,143V57a7.52,7.52,0,0,1,7.52-7.52H143a7,7,0,0,1,7,7ZM150,29.49H50.53A20.47,20.47,0,0,0,30.05,50V150a20.47,20.47,0,0,0,20.48,20.48h98.94A20.47,20.47,0,0,0,170,150V49.42A19.93,19.93,0,0,0,150,29.49Z"/><line class="cls-2" x1="96.3" y1="139.43" x2="103.7" y2="139.43"/></svg>