<svg id="Layer_1" data-name="Layer 1" xmlns="http://www.w3.org/2000/svg" viewBox="0 0 200 200"><defs><style>.cls-1{fill:#231f20;}</style></defs><title>Untitled-1</title><path class="cls-1" d="M65.42,95.09h0m69.12.09v55.55H65.42V95.18h69.12m.07-20H65.35A19.93,19.93,0,0,0,45.42,95.11v55.68a19.93,19.93,0,0,0,19.93,19.94h69.26a19.93,19.93,0,0,0,19.93-19.94V95.11a19.93,19.93,0,0,0-19.93-19.93Z"/><path class="cls-1" d="M131.42,55.28v1.23q0,.32,0,.63a8,8,0,0,1-16-.63q0-.33,0-.66a16.39,16.39,0,0,0-32.77.25V86.82a8,8,0,0,1-16,0V55.15A8.32,8.32,0,0,1,66.72,54s0-.07,0-.1a32.4,32.4,0,0,1,64.57-.29l0,0v0A7.52,7.52,0,0,1,131.42,55.28Z"/><path class="cls-1" d="M131.42,56.51v.63h0Q131.42,56.83,131.42,56.51Z"/><path class="cls-1" d="M108.24,116.76a8.25,8.25,0,1,0-12.61,7v9.82h8.71v-9.82A8.24,8.24,0,0,0,108.24,116.76Z"/></svg>