<svg id="Layer_1" data-name="Layer 1" xmlns="http://www.w3.org/2000/svg" viewBox="0 0 200 200"><defs><style>.cls-1{fill:none;stroke-linejoin:round;}.cls-1,.cls-3{stroke:#231f20;stroke-linecap:round;stroke-width:20px;}.cls-2,.cls-3{fill:#231f20;}.cls-3{stroke-linejoin:bevel;}</style></defs><title>Untitled-1</title><line class="cls-1" x1="100.17" y1="78.19" x2="132.06" y2="104.44"/><line class="cls-1" x1="68.26" y1="104.38" x2="100.15" y2="78.13"/><path class="cls-2" d="M160.22,112.24a.43.43,0,0,1-.43-.43V53.39l-9.71-9.71h.64a9.94,9.94,0,0,1,9.93,9.93v58.2a.42.42,0,0,1-.42.43Zm-120.13,0a.43.43,0,0,1-.43-.43V53.61a10,10,0,0,1,9.93-9.93h.63l-9.71,9.71v58.42A.42.42,0,0,1,40.09,112.24Z"/><path class="cls-2" d="M150.72,33.68H49.59A19.93,19.93,0,0,0,29.66,53.61v58.2a10.43,10.43,0,1,0,20.85,0V53.39h99.28v58.42a10.43,10.43,0,0,0,10.43,10.43h0a10.42,10.42,0,0,0,10.42-10.43V53.61a19.93,19.93,0,0,0-19.93-19.93Z"/><line class="cls-3" x1="99.98" y1="160.73" x2="99.98" y2="91.21"/></svg>