<svg id="Layer_1" data-name="Layer 1" xmlns="http://www.w3.org/2000/svg" viewBox="0 0 200 200"><defs><style>.cls-1{fill:none;stroke:#231f20;stroke-miterlimit:10;stroke-width:20px;}.cls-2{fill:#231f20;}</style></defs><title>Untitled-1</title><rect class="cls-1" x="39.23" y="72.6" width="73.03" height="54.8" rx="8.86"/><path class="cls-2" d="M151.76,95.06v9.88a1.63,1.63,0,0,1-2.5,1.38L147,104.93a1.63,1.63,0,0,1-.77-1.38v-7.1a1.63,1.63,0,0,1,.77-1.38l2.22-1.39a1.63,1.63,0,0,1,2.5,1.38ZM158.09,68a12,12,0,0,0-6.47,1.9l-18.19,11.4a13.17,13.17,0,0,0-6.07,11.18v15.1a13.17,13.17,0,0,0,6.07,11.18l18.19,11.4a12,12,0,0,0,6.47,1.9A12.83,12.83,0,0,0,170.68,119V81.05A12.83,12.83,0,0,0,158.09,68Z"/></svg>