<svg id="Layer_1" data-name="Layer 1" xmlns="http://www.w3.org/2000/svg" viewBox="0 0 200 200"><defs><style>.cls-1{fill:#231f20;}</style></defs><title>Untitled-1</title><path class="cls-1" d="M136.19,117.16h0a14.22,14.22,0,0,1-17.06,2.46A38.63,38.63,0,0,0,81,119.53a14.2,14.2,0,0,1-17-2.46h0a14,14,0,0,1,3-22.15,67,67,0,0,1,66.13.13A14,14,0,0,1,136.19,117.16Z"/><path class="cls-1" d="M111.44,145.26l-.23.22a13.42,13.42,0,0,1-10.58,4.11c-.21,0-.43,0-.64,0h-.26a14.12,14.12,0,0,1-10.52-4.07l-.22-.22c-8.53-8.52-3.07-23.25,9-23.93.67,0,1.35-.06,2-.06q1.49,0,2.94.12C114.7,122.38,119.78,136.9,111.44,145.26Z"/><path class="cls-1" d="M160,90.07l-.19.19a13.93,13.93,0,0,1-18,1.58,71.57,71.57,0,0,0-83.64-.06,13.94,13.94,0,0,1-17.94-1.57L40.09,90a14,14,0,0,1,1.65-21.26,100,100,0,0,1,116.62.07A14,14,0,0,1,160,90.07Z"/></svg>