<svg xmlns="http://www.w3.org/2000/svg" viewBox="0 0 118.13 119.28"><defs><style>.cls-1{fill:#231f20;}</style></defs><g id="Layer_2" data-name="Layer 2"><g id="Layer_1-2" data-name="Layer 1"><path class="cls-1" d="M10,20h98.13a10,10,0,0,0,0-20H10a10,10,0,0,0,0,20Z"/><path class="cls-1" d="M108.13,33.09H50a10,10,0,0,0,0,20h58.13a10,10,0,0,0,0-20Z"/><path class="cls-1" d="M108.13,66.18H10a10,10,0,0,0,0,20h98.13a10,10,0,0,0,0-20Z"/><path class="cls-1" d="M108.13,99.28H50a10,10,0,0,0,0,20h58.13a10,10,0,0,0,0-20Z"/></g></g></svg>