<svg id="Layer_1" data-name="Layer 1" xmlns="http://www.w3.org/2000/svg" viewBox="0 0 200 200"><defs><style>.cls-1{fill:#231f20;}</style></defs><title>Untitled-1</title><path class="cls-1" d="M149.07,60.36H50.93a10,10,0,1,1,0-20h98.14a10,10,0,0,1,0,20Z"/><path class="cls-1" d="M109.07,93.45H50.93a10,10,0,1,1,0-20h58.14a10,10,0,0,1,0,20Z"/><path class="cls-1" d="M149.07,126.55H50.93a10,10,0,1,1,0-20h98.14a10,10,0,0,1,0,20Z"/><path class="cls-1" d="M109.07,159.64H50.93a10,10,0,0,1,0-20h58.14a10,10,0,0,1,0,20Z"/></svg>