<svg id="Layer_1" data-name="Layer 1" xmlns="http://www.w3.org/2000/svg" viewBox="0 0 200 200"><defs><style>.cls-1{fill:#231f20;}</style></defs><title>Untitled-1</title><path class="cls-1" d="M50.93,60.36h98.14a10,10,0,0,0,0-20H50.93a10,10,0,1,0,0,20Z"/><path class="cls-1" d="M70.93,93.45h58.14a10,10,0,0,0,0-20H70.93a10,10,0,0,0,0,20Z"/><path class="cls-1" d="M50.93,126.55h98.14a10,10,0,0,0,0-20H50.93a10,10,0,1,0,0,20Z"/><path class="cls-1" d="M70.93,159.64h58.14a10,10,0,0,0,0-20H70.93a10,10,0,0,0,0,20Z"/></svg>