<svg xmlns="http://www.w3.org/2000/svg" viewBox="0 0 125.91 140.68"><g id="Layer_2" data-name="Layer 2"><g id="Layer_1-2" data-name="Layer 1"><path d="M54.21,11.56,58.81,7c-1,.66-39.62,39.79-49.14,49.11C8,56.68-1.68,69.23.25,79c1.88,21.29,24.31,30.21,41.12,21.52,4.36-2.69,39-39,48.75-48.21,10.18-7.88.42-29-15.77-19-1.73,1.25-14.3,14.38-27.91,27.81-11.09,10-20.35,24.32-21.6,15,.36-.62.74-1.45.65-1.17L72,28.61c18.28-13.23,37.53,9.17,25.22,25.22L69.25,81.75l.17.17C66,85.37,62.31,89,58.39,92.76,40.11,112,33.11,115.94,28.76,123.85c-4,9.63,6.57,20.41,16.26,15.68,6.55-3.81,3.62-2.7,6.79-5.37L86.73,99.24l.06.05c13-12.91,26.94-27.1,31.56-32.86C146.14,22.5,91-21.51,54.21,11.56Z"/></g></g></svg>