<svg id="Layer_1" data-name="Layer 1" xmlns="http://www.w3.org/2000/svg" viewBox="0 0 200 200"><title>Untitled-1</title><path d="M97.75,40.86l4.61-4.61c-1,.67-39.63,39.8-49.15,49.11-1.69.61-11.34,13.16-9.41,23,1.87,21.29,24.31,30.21,41.11,21.53,4.36-2.7,39-39,48.75-48.22,10.18-7.88.42-29-15.76-18.95-1.74,1.24-14.31,14.37-27.92,27.8-11.09,10-20.34,24.32-21.6,15.06.36-.62.74-1.46.66-1.18l46.45-46.45c18.29-13.24,37.54,9.16,25.23,25.22,0,0-15,15-27.93,27.92l.17.17c-3.44,3.45-7.1,7-11,10.83-18.27,19.2-25.27,23.19-29.63,31.09-4,9.64,6.58,20.42,16.27,15.69,6.54-3.81,3.61-2.71,6.78-5.37l34.93-34.93.05.05c13-12.91,26.94-27.1,31.57-32.85C189.69,51.79,134.59,7.78,97.75,40.86Z"/></svg>