<svg xmlns="http://www.w3.org/2000/svg" viewBox="0 0 120.52 119.28"><defs><style>.cls-1{fill:#231f20;}</style></defs><g id="Layer_2" data-name="Layer 2"><g id="Layer_1-2" data-name="Layer 1"><path class="cls-1" d="M24.17,59.94,66.9,17.06A10,10,0,0,0,52.74,2.94l-49.82,50A10,10,0,0,0,3,67.1l49.82,49.29a10,10,0,1,0,14.06-14.22Z"/><path class="cls-1" d="M117.56,102.17,74.87,59.94l42.74-42.88A10,10,0,0,0,103.44,2.94l-49.82,50a10,10,0,0,0,.05,14.16l49.82,49.29a10,10,0,0,0,14.07-14.22Z"/></g></g></svg>