<svg xmlns="http://www.w3.org/2000/svg" viewBox="0 0 141.08 115.28"><defs><style>.cls-1{fill:#231f20;}</style></defs><g id="Layer_2" data-name="Layer 2"><g id="Layer_1-2" data-name="Layer 1"><path class="cls-1" d="M0,38.59H0a9.71,9.71,0,0,0,.19,1.93c.06.32.14.63.23.94s.21.64.34,1c.06.14.12.28.19.42l.18.39a10.14,10.14,0,0,0,1.8,2.44l28.6,28.6A10,10,0,1,0,45.67,60.13L34.14,48.6h63.6a23.34,23.34,0,1,1,0,46.68H74.53a10,10,0,0,0,0,20H97.74a43.34,43.34,0,1,0,0-86.68H34.14L45.67,17.07A10,10,0,1,0,31.53,2.93L2.93,31.53c-.12.12-.24.24-.35.37s-.22.25-.32.38-.21.26-.31.39-.19.27-.28.4l-.27.42-.24.43c-.07.15-.15.29-.21.44s-.14.3-.2.45-.12.3-.18.45a9.89,9.89,0,0,0-.36,1.32A9.73,9.73,0,0,0,0,38.59Z"/></g></g></svg>