<svg xmlns="http://www.w3.org/2000/svg" viewBox="0 0 109.53 141.48"><defs><style>.cls-1{fill:#231f20;}</style></defs><g id="Layer_2" data-name="Layer 2"><g id="Layer_1-2" data-name="Layer 1"><path class="cls-1" d="M100.7,0H8.83A8.83,8.83,0,0,0,0,8.85L.3,130a11.38,11.38,0,0,0,19.13,8.31L53,107.11a2.56,2.56,0,0,1,3.47,0l33.95,31.33a11.37,11.37,0,0,0,19.09-8.36V8.83A8.83,8.83,0,0,0,100.7,0ZM87.46,102.85a1.23,1.23,0,0,1-2.07.9L69.72,89.29,59.63,80a7.25,7.25,0,0,0-9.85,0L39.73,89.34,24.38,103.61a1.24,1.24,0,0,1-2.08-.9l-.18-73.49a7.13,7.13,0,0,1,7.14-7.15H80.33a7.13,7.13,0,0,1,7.13,7.13Z"/></g></g></svg>