<svg id="Layer_1" data-name="Layer 1" xmlns="http://www.w3.org/2000/svg" viewBox="0 0 200 200"><defs><style>.cls-1{fill:#fff;}.cls-2{fill:#231f20;}</style></defs><title>Untitled-1</title><path class="cls-1" d="M103.33,119.74A19.9,19.9,0,0,0,108,118.4l2.18-.93v-.64Zm-3.15,1.34V120a19.46,19.46,0,0,1-3.14-.25Zm-10-3.59,2.2.93A20.2,20.2,0,0,0,97,119.75l-6.85-2.9Z"/><path class="cls-2" d="M103.33,119.74A19.9,19.9,0,0,0,108,118.4l2.18-.93v-.64Zm-13.15-2.25,2.2.93A20.2,20.2,0,0,0,97,119.75l-6.85-2.9Z"/><path class="cls-2" d="M100.18,120v1.08L97,119.75A19.46,19.46,0,0,0,100.18,120Z"/><path class="cls-2" d="M96.53,30.06l-62,29.18a9.47,9.47,0,0,0-5.23,8.64V132a9.46,9.46,0,0,0,5.31,8.67l62.19,28.5a8.06,8.06,0,0,0,6.79,0l61.84-28.49a9.47,9.47,0,0,0,5.3-8.67V67.88a9.48,9.48,0,0,0-5.23-8.64l-62-29.18A8.09,8.09,0,0,0,96.53,30.06Zm4.18,21.49,44.15,17.91a2.29,2.29,0,0,1,.08,4.11L101,93.82a1.87,1.87,0,0,1-1.6,0L55.1,73.54a2.29,2.29,0,0,1,.08-4.12l44.1-17.87A1.87,1.87,0,0,1,100.71,51.55ZM87.34,141.37,50.52,124.5a2.23,2.23,0,0,1-1.24-2V97.73a2.06,2.06,0,0,1,2.84-2l36.81,16.87a2.23,2.23,0,0,1,1.25,2v24.74A2.06,2.06,0,0,1,87.34,141.37Zm32.28-32.61,28.24-13a2.07,2.07,0,0,1,2.85,2v24.69a2.21,2.21,0,0,1-1.25,2L113,141.32a2.06,2.06,0,0,1-2.84-2V114.57a2.22,2.22,0,0,1,1.24-2Z"/></svg>