<svg id="Layer_1" data-name="Layer 1" xmlns="http://www.w3.org/2000/svg" viewBox="0 0 200 200"><defs><style>.cls-1{fill:none;}.cls-2{fill:#231f20;}</style></defs><title>Untitled-1</title><path class="cls-1" d="M125.11,98V92.53h0V98a9.88,9.88,0,0,0,1.24,4.8A10.09,10.09,0,0,1,125.11,98ZM75.05,92.56l0,0V98a10,10,0,0,1-3,7.1,9.84,9.84,0,0,0,3-7.1V96.32Zm0,0,0,0V98a10,10,0,0,1-3,7.1,9.84,9.84,0,0,0,3-7.1V96.32ZM125.11,98V92.53h0V98a9.88,9.88,0,0,0,1.24,4.8A10.09,10.09,0,0,1,125.11,98ZM75.05,92.56l0,0V98a10,10,0,0,1-3,7.1,9.84,9.84,0,0,0,3-7.1V96.32ZM125.11,98V92.53h0V98a9.88,9.88,0,0,0,1.24,4.8A10.09,10.09,0,0,1,125.11,98Zm0,0V92.53h0V98a9.88,9.88,0,0,0,1.24,4.8A10.09,10.09,0,0,1,125.11,98ZM75.05,92.56l0,0V98a10,10,0,0,1-3,7.1,9.84,9.84,0,0,0,3-7.1V96.32Zm50,3.65v1.68c0-.29,0-.57,0-.86S125.11,96.48,125.09,96.21Zm-50,.82c0,.28,0,.57,0,.85V96.32C75.08,96.56,75.08,96.79,75.08,97Zm50,1V92.53h0V98a9.88,9.88,0,0,0,1.24,4.8A10.09,10.09,0,0,1,125.11,98ZM75.05,92.56l0,0V98a10,10,0,0,1-3,7.1,9.84,9.84,0,0,0,3-7.1V96.32Z"/><path class="cls-2" d="M145.11,97v1c0,.31,0,.62,0,.93C145.1,98.3,145.11,97.67,145.11,97Z"/><path class="cls-2" d="M100,49.5A50.5,50.5,0,1,1,49.5,100,50.56,50.56,0,0,1,100,49.5m0-20A70.5,70.5,0,1,0,170.5,100,70.5,70.5,0,0,0,100,29.5Z"/><polygon class="cls-2" points="100.16 39.7 100.16 160.73 151.92 131.95 156.04 79.83 136.92 52.08 100.16 39.7"/></svg>