<svg xmlns="http://www.w3.org/2000/svg" viewBox="0 0 141.48 141.33"><defs><style>.cls-1{fill:#231f20;}</style></defs><g id="Layer_2" data-name="Layer 2"><g id="Layer_1-2" data-name="Layer 1"><path class="cls-1" d="M141.48,60.63h0V27.49c0-3.6-3.43-6.51-7.65-6.51h-23V10a10,10,0,0,0-20,0V21H49.74V10a10,10,0,1,0-20,0V21H7.67C3.45,21,0,23.89,0,27.49V60.63H0v20H0v54.19c0,3.6,3.43,6.51,7.65,6.51H133.81c4.22,0,7.65-2.91,7.65-6.51V80.63h0ZM20,41h9.72v1.88a10,10,0,1,0,20,0V41H90.79v1.88a10,10,0,0,0,20,0V41h10.67V60.63H20Zm101.44,80.35H20V80.63H121.46Z"/></g></g></svg>