<svg xmlns="http://www.w3.org/2000/svg" viewBox="0 0 140.99 140.99"><defs><style>.cls-1{fill:#231f20;}</style></defs><g id="Layer_2" data-name="Layer 2"><g id="Layer_1-2" data-name="Layer 1"><path class="cls-1" d="M20,99.19H0v21.87A19.93,19.93,0,0,0,19.93,141H41.82V121H20Z"/><path class="cls-1" d="M121,121H99.21v20h21.85A19.93,19.93,0,0,0,141,121.06V99.19H121Z"/><path class="cls-1" d="M121.06,0H99.21V20H121V41.8h20V19.93A19.93,19.93,0,0,0,121.06,0Z"/><path class="cls-1" d="M20,20H41.82V0H19.93A19.93,19.93,0,0,0,0,19.93V41.8H20Z"/><path class="cls-1" d="M70.5,35.61a34.9,34.9,0,1,0,34.9,34.9A34.94,34.94,0,0,0,70.5,35.61Zm0,49.8a14.9,14.9,0,1,1,14.9-14.9A14.91,14.91,0,0,1,70.5,85.41Z"/></g></g></svg>