<svg xmlns="http://www.w3.org/2000/svg" viewBox="0 0 141 141"><defs><style>.cls-1{fill:#231f20;}</style></defs><g id="Layer_2" data-name="Layer 2"><g id="Layer_1-2" data-name="Layer 1"><path class="cls-1" d="M70.5,0h0a70.5,70.5,0,0,0,0,141h0a70.5,70.5,0,0,0,0-141Zm0,121A50.5,50.5,0,1,1,121,70.5,50.56,50.56,0,0,1,70.5,121Z"/><path class="cls-1" d="M98.48,42.52a10,10,0,0,0-14.15,0L70.5,56.36,56.74,42.59A10,10,0,0,0,42.59,56.74L56.36,70.5,42.52,84.33A10,10,0,0,0,56.66,98.48L70.5,84.64,84.26,98.4A10,10,0,1,0,98.4,84.26L84.64,70.5,98.48,56.66A10,10,0,0,0,98.48,42.52Z"/></g></g></svg>