<svg xmlns="http://www.w3.org/2000/svg" viewBox="0 0 141.43 126.26"><defs><style>.cls-1{fill:#231f20;}</style></defs><g id="Layer_2" data-name="Layer 2"><g id="Layer_1-2" data-name="Layer 1"><path class="cls-1" d="M57.53,106.1h0a10,10,0,0,0,10-10l0-86.1a10,10,0,0,0-10-10h0a10,10,0,0,0-10,10l0,86.09A10,10,0,0,0,57.53,106.1Z"/><path class="cls-1" d="M83.92,106.1h0a10,10,0,0,0,10-10L94,33A10,10,0,0,0,84,23h0A10,10,0,0,0,74,33l0,63.1A10,10,0,0,0,83.92,106.1Z"/><path class="cls-1" d="M110.31,106.1h0a10,10,0,0,0,10-10l0-68.75a10,10,0,0,0-10-10h0a10,10,0,0,0-10,10l0,68.75A10,10,0,0,0,110.31,106.1Z"/><path class="cls-1" d="M31.13,106.1h0a10,10,0,0,0,10-10l0-37.2a10,10,0,0,0-10-10h0a10,10,0,0,0-10,10l0,37.2A10,10,0,0,0,31.13,106.1Z"/><path class="cls-1" d="M136.43,116.26H5a5,5,0,0,0,0,10H136.43a5,5,0,0,0,0-10Z"/></g></g></svg>