<svg xmlns="http://www.w3.org/2000/svg" viewBox="0 0 141 141"><defs><style>.cls-1{fill:#231f20;}</style></defs><g id="Layer_2" data-name="Layer 2"><g id="Layer_1-2" data-name="Layer 1"><path class="cls-1" d="M121.06,0H19.93A19.93,19.93,0,0,0,0,19.93V121.06A19.93,19.93,0,0,0,19.93,141H121.06A19.94,19.94,0,0,0,141,121.06V19.93A19.93,19.93,0,0,0,121.06,0ZM121,121H20V20H121Z"/><path class="cls-1" d="M51.48,98.74a10,10,0,0,0,14.14,0L108,56.34A10,10,0,0,0,93.87,42.2L58.55,77.52,46.8,65.78A10,10,0,1,0,32.66,79.92Z"/></g></g></svg>