<svg id="Layer_1" data-name="Layer 1" xmlns="http://www.w3.org/2000/svg" viewBox="0 0 200 200"><defs><style>.cls-1{fill:#231f20;}</style></defs><title>Untitled-1</title><path class="cls-1" d="M65.18,139.65a13.95,13.95,0,0,1-3.8,0Z"/><path class="cls-1" d="M146.3,139.65a5.7,5.7,0,0,1-2.42,0Z"/><path class="cls-1" d="M75.58,119l0,.06,16.8-10.9Z"/><path class="cls-1" d="M66.22,159.65c-1,.09-2,.13-2.94.13s-2,0-2.94-.13Z"/><path class="cls-1" d="M147.71,159.65a26.47,26.47,0,0,1-5.24,0Z"/><path class="cls-1" d="M128.44,114.72l.12.12a7.4,7.4,0,0,1,.83-.85C129.08,114.25,128.76,114.49,128.44,114.72Zm0,0,.12.12a7.4,7.4,0,0,1,.83-.85C129.08,114.25,128.76,114.49,128.44,114.72Z"/><path class="cls-1" d="M155.67,110.85A45.24,45.24,0,1,0,68.35,92.11a35.28,35.28,0,0,0-5.07-.37,34,34,0,0,0-2.94,67.91h87.37a25.63,25.63,0,0,0,22.39-20,25.63,25.63,0,0,0-14.43-28.8Zm-9.37,28.8a5.7,5.7,0,0,1-2.42,0H65.18a13.95,13.95,0,0,1-3.8,0,14,14,0,1,1,13.43-21.86.05.05,0,0,1,0,0l.07.1s0,0,0,0a10.07,10.07,0,1,0,16.94-10.66l-.09-.16A25.08,25.08,0,0,1,88.3,93.66a25.24,25.24,0,0,1,50.46.73A25.16,25.16,0,0,1,130,113.47l0,0c-.18.16-.37.32-.56.46,0,0,0,0,0,0a7.4,7.4,0,0,0-.83.85,10,10,0,0,0,13.61,14.51l0,0,.09-.08v0a5.62,5.62,0,0,1,5.18-.24,5.55,5.55,0,0,1,3.11,3.93A5.62,5.62,0,0,1,146.3,139.65Z"/></svg>