<svg xmlns="http://www.w3.org/2000/svg" viewBox="0 0 141.43 141.44"><defs><style>.cls-1{fill:#231f20;}</style></defs><g id="Layer_2" data-name="Layer 2"><g id="Layer_1-2" data-name="Layer 1"><path class="cls-1" d="M121.5,31.44H110V19.94A19.93,19.93,0,0,0,90.07,0H19.93A19.93,19.93,0,0,0,0,19.94V90.07A19.93,19.93,0,0,0,19.93,110h11.5v11.5a19.94,19.94,0,0,0,19.93,19.94H121.5a19.93,19.93,0,0,0,19.93-19.94V51.37A19.93,19.93,0,0,0,121.5,31.44ZM20,90V20H90V90Zm101.43,31.44h-70V110H90.07A19.93,19.93,0,0,0,110,90.07V51.44h11.43Z"/></g></g></svg>