<svg xmlns="http://www.w3.org/2000/svg" viewBox="0 0 141.39 141.39"><defs><style>.cls-1{fill:#231f20;}</style></defs><g id="Layer_2" data-name="Layer 2"><g id="Layer_1-2" data-name="Layer 1"><path class="cls-1" d="M70.7,0a70.7,70.7,0,1,0,70.69,70.7A70.7,70.7,0,0,0,70.7,0Zm0,121.39A50.7,50.7,0,1,1,121.39,70.7,50.75,50.75,0,0,1,70.7,121.39Z"/><path class="cls-1" d="M99.24,85.42A39.21,39.21,0,0,1,56,42.19,4.39,4.39,0,0,0,49.26,38a40,40,0,0,0-6.53,5.27,39.2,39.2,0,1,0,60.68,49A4.39,4.39,0,0,0,99.24,85.42Z"/></g></g></svg>