<svg xmlns="http://www.w3.org/2000/svg" viewBox="0 0 141.43 141.43"><g id="Layer_2" data-name="Layer 2"><g id="Layer_1-2" data-name="Layer 1"><path d="M70.72,0a70.72,70.72,0,1,0,70.71,70.72A70.72,70.72,0,0,0,70.72,0Zm0,121.43a50.72,50.72,0,1,1,50.71-50.71A50.77,50.77,0,0,1,70.72,121.43Z"/><path d="M70.74,55.56A15.15,15.15,0,1,0,85.88,70.71,15.15,15.15,0,0,0,70.74,55.56Zm0,20.29a5.15,5.15,0,1,1,5.14-5.14A5.15,5.15,0,0,1,70.74,75.85Z"/><path d="M112.89,65A42.55,42.55,0,0,0,76.4,28.55a5,5,0,0,0-5.68,4.94v1.3a5,5,0,0,0,4.35,4.94,31.37,31.37,0,0,1,26.65,26.62,5,5,0,0,0,4.93,4.36H108A5,5,0,0,0,112.89,65Z"/></g></g></svg>