<svg xmlns="http://www.w3.org/2000/svg" viewBox="0 0 141 141"><defs><style>.cls-1{fill:#231f20;}</style></defs><g id="Layer_2" data-name="Layer 2"><g id="Layer_1-2" data-name="Layer 1"><path class="cls-1" d="M70.5,0A70.49,70.49,0,0,0,0,70.5H0a70.5,70.5,0,0,0,141,0h0A70.5,70.5,0,0,0,70.5,0Zm0,121A50.5,50.5,0,1,1,121,70.5,50.56,50.56,0,0,1,70.5,121Z"/><path class="cls-1" d="M93.87,42.2,58.55,77.52,46.8,65.78A10,10,0,1,0,32.66,79.92L51.48,98.74a10,10,0,0,0,14.14,0L108,56.34A10,10,0,0,0,93.87,42.2Z"/></g></g></svg>