<svg xmlns="http://www.w3.org/2000/svg" viewBox="0 0 119.28 120.52"><defs><style>.cls-1{fill:#231f20;}</style></defs><g id="Layer_2" data-name="Layer 2"><g id="Layer_1-2" data-name="Layer 1"><path class="cls-1" d="M60,120.52a10,10,0,0,1-7.05-2.91l-50-49.82A10,10,0,0,1,17.06,53.62L59.94,96.36l42.23-42.69a10,10,0,0,1,14.22,14.07L67.1,117.56a10,10,0,0,1-7.07,3Z"/><path class="cls-1" d="M60,69.82a10,10,0,0,1-7.05-2.92l-50-49.82A10,10,0,0,1,17.06,2.92L59.94,45.65,102.17,3A10,10,0,0,1,116.39,17L67.1,66.85a10,10,0,0,1-7.07,3Z"/></g></g></svg>