<svg id="Layer_1" data-name="Layer 1" xmlns="http://www.w3.org/2000/svg" viewBox="0 0 200 200"><defs><style>.cls-1{fill:none;stroke-linejoin:round;}.cls-1,.cls-3{stroke:#231f20;stroke-linecap:round;stroke-width:20px;}.cls-2,.cls-3{fill:#231f20;}.cls-3{stroke-linejoin:bevel;}</style></defs><title>Untitled-1</title><line class="cls-1" x1="99.99" y1="124.84" x2="68.09" y2="98.59"/><line class="cls-1" x1="131.89" y1="98.64" x2="100" y2="124.89"/><path class="cls-2" d="M149.93,159.34l9.71-9.7V110.42a.43.43,0,0,1,.85,0v39a9.94,9.94,0,0,1-9.93,9.92Zm-100.5,0a9.93,9.93,0,0,1-9.93-9.92v-39a.42.42,0,0,1,.42-.42.43.43,0,0,1,.44.42v39.22l9.71,9.7Z"/><path class="cls-2" d="M160.06,100h0a10.42,10.42,0,0,0-10.42,10.43v39.22H50.36V110.42A10.43,10.43,0,0,0,39.93,100h0A10.42,10.42,0,0,0,29.5,110.42v39a19.92,19.92,0,0,0,19.93,19.92H150.56a19.93,19.93,0,0,0,19.93-19.92v-39A10.43,10.43,0,0,0,160.06,100Z"/><line class="cls-3" x1="100.17" y1="42.3" x2="100.17" y2="111.81"/></svg>