<svg xmlns="http://www.w3.org/2000/svg" viewBox="0 0 140.99 137.04"><defs><style>.cls-1{fill:#231f20;}</style></defs><g id="Layer_2" data-name="Layer 2"><g id="Layer_1-2" data-name="Layer 1"><path class="cls-1" d="M32.24,74l31.3,25.76a10,10,0,0,0,13.32.54l31.89-26.25A10,10,0,1,0,96,58.62L80.68,71.26V10a10,10,0,1,0-20,0V71.51L45,58.57A10,10,0,0,0,32.24,74Z"/><path class="cls-1" d="M139.73,73.15a10.41,10.41,0,0,0-9.17-5.46h0a10.62,10.62,0,0,0-3.1.47A10.44,10.44,0,0,0,120.61,75a10.25,10.25,0,0,0-.47,3.1v39.21H20.86V78.12A10.42,10.42,0,0,0,10.44,67.69h0a10.62,10.62,0,0,0-3.1.47A10.44,10.44,0,0,0,.47,75,10.25,10.25,0,0,0,0,78.12v39a19.81,19.81,0,0,0,1.57,7.76,20.11,20.11,0,0,0,1.83,3.39,20.39,20.39,0,0,0,3.85,4.23A19.76,19.76,0,0,0,19.93,137H121.06a19.63,19.63,0,0,0,2-.1,19.94,19.94,0,0,0,17-13.9,19.66,19.66,0,0,0,.9-5.93v-39A10.42,10.42,0,0,0,139.73,73.15Z"/></g></g></svg>