<svg id="Layer_1" data-name="Layer 1" xmlns="http://www.w3.org/2000/svg" viewBox="0 0 200 200"><defs><style>.cls-1{fill:#231f20;}.cls-2{fill:none;stroke:#231f20;stroke-miterlimit:10;stroke-width:20px;}</style></defs><title>Untitled-1</title><path class="cls-1" d="M42.23,170.75a13,13,0,0,1-12.45-16.69l8.1-27.28a1.53,1.53,0,0,1,.39-.66l91.6-91.6a18,18,0,0,1,25.34,0l10.25,10.25a17.93,17.93,0,0,1,0,25.34L73.87,161.72a1.55,1.55,0,0,1-.66.4l-27.28,8.09A13.1,13.1,0,0,1,42.23,170.75Zm13.38-33.41-2.15,7.23a1.57,1.57,0,0,0,2,2l7.23-2.14a1.64,1.64,0,0,0,.67-.4L147.18,60.1a3.76,3.76,0,0,0,0-5.32l-2-2a3.76,3.76,0,0,0-5.32,0L56,136.67A1.62,1.62,0,0,0,55.61,137.34Zm95.71-78.43h0Z"/><line class="cls-2" x1="119.11" y1="61.26" x2="138.61" y2="80.76"/></svg>