<svg xmlns="http://www.w3.org/2000/svg" viewBox="0 0 141.46 141.47"><defs><style>.cls-1{fill:#231f20;}</style></defs><g id="Layer_2" data-name="Layer 2"><g id="Layer_1-2" data-name="Layer 1"><path class="cls-1" d="M136.22,15.49,126,5.24a17.93,17.93,0,0,0-25.34,0L9,96.84a1.55,1.55,0,0,0-.4.66L.54,124.78a13,13,0,0,0,16.14,16.15L44,132.83a1.53,1.53,0,0,0,.66-.39l91.59-91.61A18,18,0,0,0,136.22,15.49ZM34.08,114.71a1.62,1.62,0,0,1-.67.39l-7.23,2.15a1.57,1.57,0,0,1-2-2l2.14-7.23a1.64,1.64,0,0,1,.4-.67L89,45.21l7.3,7.3Zm83.86-83.89-7.55,7.55-7.3-7.31,7.54-7.54a3.77,3.77,0,0,1,5.33,0l2,2A3.76,3.76,0,0,1,117.94,30.82Z"/></g></g></svg>