<svg xmlns="http://www.w3.org/2000/svg" viewBox="0 0 141.43 120.35"><defs><style>.cls-1{fill:#231f20;}</style></defs><g id="Layer_2" data-name="Layer 2"><g id="Layer_1-2" data-name="Layer 1"><path class="cls-1" d="M121.5,0H19.93A19.93,19.93,0,0,0,0,19.93v80.49a19.93,19.93,0,0,0,19.93,19.93H121.5a19.93,19.93,0,0,0,19.93-19.93V19.93A19.93,19.93,0,0,0,121.5,0ZM70.73,47.57,35.88,20h69.69ZM20,100.35V32.94L64.51,68.15a9.79,9.79,0,0,0,4,1.91h0c.33.07.66.13,1,.17h.13a8.72,8.72,0,0,0,1,.06h0a8.72,8.72,0,0,0,1-.06h.14c.32,0,.65-.1,1-.17h0a9.81,9.81,0,0,0,4-1.91L121.43,33v67.4Z"/></g></g></svg>