<svg id="Layer_1" data-name="Layer 1" xmlns="http://www.w3.org/2000/svg" viewBox="0 0 200 200"><defs><style>.cls-1,.cls-3{fill:#fff;}.cls-2{fill:#231f20;}.cls-3,.cls-4{stroke:#231f20;stroke-linecap:round;stroke-linejoin:round;stroke-width:20px;}.cls-4{fill:none;}</style></defs><title>Untitled-1</title><path class="cls-1" d="M82.54,154a37.71,37.71,0,1,1,26.67-11A37.48,37.48,0,0,1,82.54,154Z"/><path class="cls-2" d="M82.54,88.51a27.73,27.73,0,1,1-19.6,8.12,27.56,27.56,0,0,1,19.6-8.12m0-20a47.73,47.73,0,1,0,33.74,14,47.57,47.57,0,0,0-33.74-14Z"/><line class="cls-3" x1="108.89" y1="89.89" x2="141.76" y2="57.02"/><line class="cls-4" x1="131.88" y1="46.07" x2="155.18" y2="46.05"/><line class="cls-4" x1="150.83" y1="68.99" x2="155.11" y2="46.1"/></svg>