<svg xmlns="http://www.w3.org/2000/svg" viewBox="0 0 130.36 127.91"><defs><style>.cls-1{fill:#231f20;}</style></defs><g id="Layer_2" data-name="Layer 2"><g id="Layer_1-2" data-name="Layer 1"><path class="cls-1" d="M130.36,10a10,10,0,0,0-10-10h0L97.05,0A10,10,0,0,0,94.17,19.6L73.65,40.12A47.73,47.73,0,1,0,87.79,54.27L106.4,35.66a10,10,0,0,0,7.77,7.11,9.72,9.72,0,0,0,1.85.17,10,10,0,0,0,9.82-8.16l4.11-22A10.21,10.21,0,0,0,130.36,10Zm-63,89.8a27.72,27.72,0,1,1-1.88-40.91,10.36,10.36,0,0,0,1.56,2,9.94,9.94,0,0,0,2,1.55A27.77,27.77,0,0,1,67.32,99.79Z"/></g></g></svg>