<svg xmlns="http://www.w3.org/2000/svg" viewBox="0 0 106.72 140.14"><defs><style>.cls-1{fill:#231f20;}</style></defs><g id="Layer_2" data-name="Layer 2"><g id="Layer_1-2" data-name="Layer 1"><path class="cls-1" d="M105.49,48.36l-.08-.12c-.13-.24-.28-.48-.43-.71l-.21-.28-.38-.49c-.09-.11-.19-.21-.29-.31l-.38-.42-.07-.07L58.81,2.8l-.29-.26-.36-.32L57.79,2l-.41-.3L57,1.44a4.62,4.62,0,0,0-.48-.28L56.21,1C56,.91,55.85.82,55.67.75L55.35.63l-.59-.2c-.11,0-.23-.06-.34-.09S54,.23,53.82.19L53.37.12,52.86.05c-.32,0-.65,0-1,0H10A10,10,0,0,0,0,10V130.14a10,10,0,0,0,10,10H96.72a10,10,0,0,0,10-10v-77A10,10,0,0,0,105.49,48.36ZM61.88,33.51l10,9.66h-10ZM20,120.14V20H41.88V53.17a10,10,0,0,0,10,10H86.72v57Z"/></g></g></svg>