<svg xmlns="http://www.w3.org/2000/svg" viewBox="0 0 141.32 99.28"><g id="Layer_2" data-name="Layer 2"><g id="Layer_1-2" data-name="Layer 1"><path d="M133.61,20H78.37a7.71,7.71,0,0,1-7.71-7.71V7.71A7.71,7.71,0,0,0,63,0H7.71A7.71,7.71,0,0,0,0,7.71V91.57a7.71,7.71,0,0,0,7.71,7.71h125.9a7.71,7.71,0,0,0,7.71-7.71V27.67A7.71,7.71,0,0,0,133.61,20ZM121.32,76a3.24,3.24,0,0,1-2.95,3.22H50.68v0H23.25A3.24,3.24,0,0,1,20,76V23.25A3.24,3.24,0,0,1,23.25,20H47.41a3.26,3.26,0,0,1,3.27,3.27V31.2A8.75,8.75,0,0,0,59.43,40h58.64a3.24,3.24,0,0,1,3.25,3.25Z"/></g></g></svg>