<svg id="Layer_1" data-name="Layer 1" xmlns="http://www.w3.org/2000/svg" viewBox="0 0 200 200"><defs><style>.cls-1{fill:#231f20;}</style></defs><title>Untitled-1</title><path class="cls-1" d="M79.94,129.63v0h70.64v0Z"/><path d="M99.92,62.61V58.09a7.71,7.71,0,0,0-7.71-7.71H37a7.72,7.72,0,0,0-7.72,7.71v83.85A7.72,7.72,0,0,0,37,149.66H162.87a7.72,7.72,0,0,0,7.71-7.72V78a7.71,7.71,0,0,0-7.71-7.71H107.64A7.72,7.72,0,0,1,99.92,62.61Zm47.42,67.05H52.51a3.26,3.26,0,0,1-3.25-3.25V73.62a3.25,3.25,0,0,1,3.25-3.24H76.68a3.26,3.26,0,0,1,3.26,3.26v7.94a8.75,8.75,0,0,0,8.75,8.75h58.65a3.24,3.24,0,0,1,3.24,3.24v32.84A3.25,3.25,0,0,1,147.34,129.66Z"/></svg>