<svg xmlns="http://www.w3.org/2000/svg" viewBox="0 0 141.43 141"><defs><style>.cls-1{fill:#231f20;}</style></defs><g id="Layer_2" data-name="Layer 2"><g id="Layer_1-2" data-name="Layer 1"><path class="cls-1" d="M121.28,0H20.7A20.59,20.59,0,0,0,0,20.48v100A20.59,20.59,0,0,0,20.7,141h100a20.59,20.59,0,0,0,20.7-20.48V19.93A20,20,0,0,0,121.28,0Zm-.07,27V40.29H100.69V20h13.47A7,7,0,0,1,121.21,27ZM60.34,80.63V60.29H80.69V80.63Zm20.35,20V121H60.34V100.63Zm-40.35-20H20.22V60.29H40.34Zm20-40.34V20H80.69V40.29Zm40.35,20h20.52V80.63H100.69ZM27.83,20H40.34V40.29H20.22V27.53A7.56,7.56,0,0,1,27.83,20Zm-7.61,93.47V100.63H40.34V121H27.83A7.57,7.57,0,0,1,20.22,113.47ZM113.6,121H100.69V100.63h20.52v12.84A7.56,7.56,0,0,1,113.6,121Z"/></g></g></svg>