<svg xmlns="http://www.w3.org/2000/svg" viewBox="0 0 141.43 141"><defs><style>.cls-1{fill:#231f20;}</style></defs><g id="Layer_2" data-name="Layer 2"><g id="Layer_1-2" data-name="Layer 1"><path class="cls-1" d="M121.28,0H20.7A20.59,20.59,0,0,0,0,20.48v100A20.59,20.59,0,0,0,20.7,141h100a20.59,20.59,0,0,0,20.7-20.48V19.93A20,20,0,0,0,121.28,0ZM27.83,20h86.33a7,7,0,0,1,7,7V40.29h-101V27.53A7.56,7.56,0,0,1,27.83,20Zm93.38,40.29V80.63h-101V60.29ZM113.6,121H27.83a7.56,7.56,0,0,1-7.61-7.53V100.63h101v12.84A7.56,7.56,0,0,1,113.6,121Z"/></g></g></svg>