<svg xmlns="http://www.w3.org/2000/svg" viewBox="0 0 141 141.21"><g id="Layer_2" data-name="Layer 2"><g id="Layer_1-2" data-name="Layer 1"><path d="M114.39,109.23,112.46,121H109v-9.94a38.1,38.1,0,0,0,5.36-1.85m-87.78,0A37.41,37.41,0,0,0,32,111.08V121H28.54l-1.93-11.79M70.5,0A70.49,70.49,0,0,0,0,70.5l10,61.05a9.67,9.67,0,0,0,9.66,9.66H30V141H41.59A10.39,10.39,0,0,0,52,130.64V102.7A10.39,10.39,0,0,0,41.59,92.32,18.07,18.07,0,0,1,25.17,81.78a39.58,39.58,0,0,1,.92-35.32A50.55,50.55,0,0,1,70.5,20a49.21,49.21,0,0,1,46.82,33.93,38.27,38.27,0,0,1-.6,25.43l-.89,2.42A18.07,18.07,0,0,1,99.41,92.32,10.38,10.38,0,0,0,89,102.7v27.94A10.38,10.38,0,0,0,99.41,141H111v.19h10.34a9.66,9.66,0,0,0,9.66-9.66L141,70.5A70.5,70.5,0,0,0,70.5,0Z"/></g></g></svg>