<svg xmlns="http://www.w3.org/2000/svg" viewBox="0 0 142 141"><defs><style>.cls-1{fill:#231f20;}</style></defs><g id="Layer_2" data-name="Layer 2"><g id="Layer_1-2" data-name="Layer 1"><path class="cls-1" d="M71.5,0h-1a70.5,70.5,0,0,0,0,141l.5,0,.5,0a70.5,70.5,0,0,0,0-141ZM21,70.5A50.55,50.55,0,0,1,71,20a50.49,50.49,0,0,1,0,101A50.55,50.55,0,0,1,21,70.5Z"/><path class="cls-1" d="M69,91.62c-4.14,0-7.53,2.9-7.53,7s3.39,7,7.53,7,7.58-2.89,7.58-7S73.12,91.62,69,91.62Z"/><path class="cls-1" d="M70.77,35.21c-11.22,0-22.89,5.44-22.44,20.25H60.4c.05-5.53,3.34-9.82,9.62-9.82,4.79,0,9.33,2.49,9.33,8.38,0,4.74-3,6.93-7.68,10.22-5.59,3.84-9.38,8.58-8.88,16.06l.05,3H74.71V80.7c0-5.48,2.25-7.08,8.08-11.32,4.79-3.44,9.88-7.43,9.88-16.06C92.67,41.15,82.39,35.21,70.77,35.21Z"/></g></g></svg>