<svg xmlns="http://www.w3.org/2000/svg" viewBox="0 0 139.65 139.65"><defs><style>.cls-1{fill:#231f20;}</style></defs><g id="Layer_2" data-name="Layer 2"><g id="Layer_1-2" data-name="Layer 1"><path class="cls-1" d="M69.83,0a69.83,69.83,0,1,0,69.82,69.83A69.82,69.82,0,0,0,69.83,0Zm0,119.65a49.83,49.83,0,1,1,49.82-49.82A49.88,49.88,0,0,1,69.83,119.65Z"/><path class="cls-1" d="M69.83,57.42a9.8,9.8,0,0,0-9.8,9.8V97.31a9.8,9.8,0,0,0,19.59,0V67.22A9.79,9.79,0,0,0,69.83,57.42Z"/><circle class="cls-1" cx="69.83" cy="42.55" r="10"/></g></g></svg>