<svg xmlns="http://www.w3.org/2000/svg" viewBox="0 0 141.51 141.51"><defs><style>.cls-1{fill:#231f20;}</style></defs><g id="Layer_2" data-name="Layer 2"><g id="Layer_1-2" data-name="Layer 1"><path class="cls-1" d="M140.65,40c-.06-.14-.12-.28-.19-.41.07.15.14.3.2.45A.06.06,0,0,0,140.65,40Z"/><path class="cls-1" d="M70.7,37.34a33.41,33.41,0,1,0,33.41,33.41A33.4,33.4,0,0,0,70.7,37.34Zm0,46.82A13.41,13.41,0,1,1,84.11,70.75,13.42,13.42,0,0,1,70.7,84.16Z"/><path class="cls-1" d="M70.7,33.53a10,10,0,0,0,10-10V10a10,10,0,0,0-20,0V23.53A10,10,0,0,0,70.7,33.53Z"/><path class="cls-1" d="M30.25,44.47A10,10,0,0,0,44.39,30.33l-9.56-9.57A10,10,0,0,0,20.68,34.91Z"/><path class="cls-1" d="M33.53,70.81a10,10,0,0,0-10-10H10a10,10,0,0,0,0,20H23.53A10,10,0,0,0,33.53,70.81Z"/><path class="cls-1" d="M30.33,97.12l-9.57,9.56a10,10,0,0,0,14.15,14.15l9.56-9.57A10,10,0,1,0,30.33,97.12Z"/><path class="cls-1" d="M70.81,108a10,10,0,0,0-10,10v13.52a10,10,0,0,0,20,0V118A10,10,0,0,0,70.81,108Z"/><path class="cls-1" d="M111.26,97a10,10,0,0,0-14.14,14.14l9.57,9.57a10,10,0,0,0,14.14-14.15Z"/><path class="cls-1" d="M131.51,60.7H118a10,10,0,0,0,0,20h13.52a10,10,0,0,0,0-20Z"/><path class="cls-1" d="M104.11,47.32a10,10,0,0,0,7.07-2.93l9.57-9.56a10,10,0,1,0-14.14-14.15L97,30.25a10,10,0,0,0,7.07,17.07Z"/></g></g></svg>