<svg xmlns="http://www.w3.org/2000/svg" viewBox="0 0 141.02 94.2"><defs><style>.cls-1{fill:#231f20;}</style></defs><g id="Layer_2" data-name="Layer 2"><g id="Layer_1-2" data-name="Layer 1"><path class="cls-1" d="M100.13.54C89.61,0,46.4-.4,35.74.75-5.45,10,.92,67,41.07,69.1H35.78c.95.2,45.61-.1,56.43,0,1.32.62,14.07-1,18.59-7.77,11.15-13.3,3.39-31.32-11.25-36-4-1-44.78,0-55.69-.32C33.49,23.74,27,41.48,42,45c1.71.28,16.46,0,32,.06,12.1.65,25.65-2.28,21,3.76-.57.16-1.26.42-1,.3H40.67c-18.1-2.9-16.29-26.82,0-29,0,0,53.86,0,53.42,0h0a27,27,0,0,1,26.82,29.51C118,73.18,96.16,74.69,89.06,74H13.18c-3.35.29-1-.75-7,.81-8.28,2.85-8.14,15.09-.33,18.35,7,2,13.35.31,34.87.84,39.72-.77,59.93,2.88,74.51-5C157,66.78,145.12,7,100.13.54Z"/></g></g></svg>