<svg xmlns="http://www.w3.org/2000/svg" viewBox="0 0 89.05 120.36"><defs><style>.cls-1{fill:#231f20;}</style></defs><g id="Layer_2" data-name="Layer 2"><g id="Layer_1-2" data-name="Layer 1"><path class="cls-1" d="M88.88,48.29c.11-1.24.17-2.5.17-3.76a44.53,44.53,0,1,0-89,0c0,1.26.07,2.52.17,3.76H0c0,20.88,27.57,55.61,39.4,69.56a7.13,7.13,0,0,0,10.74.14c39.17-43.68,38.75-69.7,38.75-69.7ZM69,46.62l-.19,2.31a57.34,57.34,0,0,1-4.44,13.52C61.2,69.42,55.45,79.85,45,93c-4.18-5.39-8.79-11.7-12.95-18.18C24.18,62.55,21.44,55.14,20.5,51.36l-.4-4.74c-.07-.8-.1-1.49-.1-2.09a24.53,24.53,0,1,1,49.05,0C69.05,45.13,69,45.82,69,46.62Z"/><circle class="cls-1" cx="44.53" cy="46.87" r="15"/></g></g></svg>