<svg id="Layer_1" data-name="Layer 1" xmlns="http://www.w3.org/2000/svg" viewBox="0 0 200 200"><defs><style>.cls-1{fill:#231f20;}</style></defs><title>Untitled-1</title><path class="cls-1" d="M100,49.3a24.56,24.56,0,0,1,24.53,24.52c0,.6,0,1.29-.1,2.1l-.2,2.31a56.82,56.82,0,0,1-4.44,13.51c-3.12,7-8.87,17.4-19.28,30.6-4.17-5.4-8.78-11.7-12.94-18.18C79.66,91.84,76.92,84.43,76,80.66l-.4-4.74c-.06-.81-.1-1.49-.1-2.1A24.56,24.56,0,0,1,100,49.3m0-20A44.53,44.53,0,0,0,55.47,73.82c0,1.27.07,2.52.17,3.77h-.17c0,20.88,27.57,55.61,39.41,69.55a7.14,7.14,0,0,0,10.74.15c39.16-43.68,38.75-69.7,38.75-69.7h0c.1-1.25.17-2.5.17-3.77A44.53,44.53,0,0,0,100,29.3Z"/><circle class="cls-1" cx="100" cy="76.17" r="15"/></svg>