<svg xmlns="http://www.w3.org/2000/svg" viewBox="0 0 109.13 146.61"><defs><style>.cls-1{fill:#231f20;}</style></defs><g id="Layer_2" data-name="Layer 2"><g id="Layer_1-2" data-name="Layer 1"><path class="cls-1" d="M89.2,51.06H86V31.16a7.52,7.52,0,0,0-.16-1.59v0l0,0a32.4,32.4,0,0,0-64.57.29s0,.07,0,.1A8.32,8.32,0,0,0,21.23,31v20h-1.3A19.93,19.93,0,0,0,0,71v55.68a19.93,19.93,0,0,0,19.93,19.94H89.2a19.94,19.94,0,0,0,19.93-19.94V71A19.93,19.93,0,0,0,89.2,51.06ZM37.23,32A16.4,16.4,0,0,1,70,32V51.06H37.23Zm51.9,94.63H20V71.06H89.13Z"/><path class="cls-1" d="M50.22,99.64v9.82h8.7V99.64a8.25,8.25,0,1,0-8.7,0Z"/></g></g></svg>