<svg xmlns="http://www.w3.org/2000/svg" viewBox="0 0 141.82 126.57"><defs><style>.cls-1{fill:#231f20;}</style></defs><g id="Layer_2" data-name="Layer 2"><g id="Layer_1-2" data-name="Layer 1"><path class="cls-1" d="M71.24,126.57a10,10,0,0,1-7-2.87L14.77,75.07,14.71,75a50,50,0,0,1-12.25-51c3-9.27,11-17,21.93-21.08C36.29-1.51,48.89-.9,58.12,4.61a10.9,10.9,0,0,1,1.13.79L71,14.85,82.9,5.41a11,11,0,0,1,1.2-.82c9.4-5.46,22.1-5.88,34-1.12,11,4.42,19,12.47,21.77,22.07a49.74,49.74,0,0,1-12.58,49L78.32,123.63A10,10,0,0,1,71.24,126.57ZM28.83,60.84l42.34,41.64,42-42.05a29.74,29.74,0,0,0,7.52-29.33c-1-3.53-4.85-7-10-9.07-5.67-2.27-12-2.42-16-.43L77.23,35.47a10,10,0,0,1-12.49,0L47.37,21.51c-3.91-2-10.21-2-15.93.18-5.06,1.91-8.87,5.16-10,8.51A30.11,30.11,0,0,0,28.83,60.84Z"/></g></g></svg>