<svg xmlns="http://www.w3.org/2000/svg" viewBox="0 0 116.59 141.61"><defs><style>.cls-1{fill:#231f20;}</style></defs><g id="Layer_2" data-name="Layer 2"><g id="Layer_1-2" data-name="Layer 1"><path class="cls-1" d="M58.3,0A58.29,58.29,0,0,0,0,58.28V134a7.64,7.64,0,0,0,7.63,7.63h35.8A7.64,7.64,0,0,0,51.06,134V57.91a7.52,7.52,0,0,1,6.41-7.55,7.34,7.34,0,0,1,8.26,7.27V134a7.64,7.64,0,0,0,7.63,7.63H109a7.64,7.64,0,0,0,7.63-7.63V58.28A58.29,58.29,0,0,0,58.3,0Zm.88,30.31A27.36,27.36,0,0,0,31.06,57.63V103H23.57V58.28a34.73,34.73,0,0,1,69.45,0V103H85.73V58.26C85.73,43.36,74.07,30.74,59.18,30.31Z"/></g></g></svg>