<svg id="Layer_1" data-name="Layer 1" xmlns="http://www.w3.org/2000/svg" viewBox="0 0 200 200"><defs><style>.cls-1{fill:#231f20;}.cls-2,.cls-3{fill:#fff;}.cls-3{stroke:#231f20;stroke-linecap:round;stroke-linejoin:round;stroke-width:20px;}</style></defs><title>Untitled-1</title><path class="cls-1" d="M170,69.26c-.06-.15-.13-.3-.2-.45.07.13.13.27.19.41A.06.06,0,0,1,170,69.26Z"/><circle class="cls-2" cx="100" cy="77" r="37.72"/><path class="cls-1" d="M100,49.28A27.72,27.72,0,1,1,72.28,77,27.75,27.75,0,0,1,100,49.28m0-20A47.72,47.72,0,1,0,147.72,77,47.72,47.72,0,0,0,100,29.28Z"/><line class="cls-3" x1="99.99" y1="114.26" x2="99.99" y2="160.74"/><line class="cls-3" x1="78.92" y1="142.08" x2="121.08" y2="142.08"/></svg>