<svg xmlns="http://www.w3.org/2000/svg" viewBox="0 0 117.68 141.46"><defs><style>.cls-1{fill:#231f20;}</style></defs><g id="Layer_2" data-name="Layer 2"><g id="Layer_1-2" data-name="Layer 1"><path class="cls-1" d="M117.67,39.94c-.06-.14-.12-.28-.19-.41.07.15.14.3.2.45A.06.06,0,0,0,117.67,39.94Z"/><path class="cls-1" d="M47.72,0a47.72,47.72,0,0,0-10,94.38v8.42H26.64a10,10,0,0,0,0,20H37.71v8.66a10,10,0,0,0,20,0V122.8H68.8a10,10,0,0,0,0-20H57.71V94.38A47.72,47.72,0,0,0,47.72,0Zm2.53,75.32A10.11,10.11,0,0,0,47.71,75a10,10,0,0,0-2.52.34,27.72,27.72,0,1,1,5.06,0Z"/></g></g></svg>