<svg xmlns="http://www.w3.org/2000/svg" viewBox="0 0 140.9 141.32"><defs><style>.cls-1{fill:#231f20;}</style></defs><g id="Layer_2" data-name="Layer 2"><g id="Layer_1-2" data-name="Layer 1"><path class="cls-1" d="M140.85,9.11s0-.1,0-.16a11.38,11.38,0,0,0-.22-1.3.74.74,0,0,1,0-.14,9.58,9.58,0,0,0-.42-1.28s0,0,0-.06a2.4,2.4,0,0,0-.11-.23l-.15-.34-.18-.33a3.07,3.07,0,0,0-.17-.31l-.2-.33-.19-.29c-.07-.11-.15-.21-.23-.32l-.21-.27-.24-.29-.24-.26L138,2.93l-.27-.25-.26-.24-.3-.24a2.65,2.65,0,0,0-.26-.21l-.32-.23-.29-.19-.33-.2-.31-.17L135.3,1,135,.87l-.22-.11-.07,0a9.13,9.13,0,0,0-1.28-.42l-.13,0a11.19,11.19,0,0,0-1.31-.22l-.15,0c-.3,0-.59,0-.89,0H104.59a10,10,0,0,0,0,20h2.17L91.43,35.33a10,10,0,1,0,14.14,14.14L120.9,34.14V36.3a10,10,0,0,0,20,0V10A8.85,8.85,0,0,0,140.85,9.11Z"/><path class="cls-1" d="M34.14,20H36.3a10,10,0,0,0,0-20H10c-.3,0-.6,0-.89,0L9,.06A11.19,11.19,0,0,0,7.65.28l-.14,0A10.07,10.07,0,0,0,6.23.74l-.06,0L5.94.87,5.6,1l-.33.18A3.07,3.07,0,0,0,5,1.37l-.33.2-.29.19L4,2l-.27.21-.29.24-.26.24-.27.25-.25.27-.24.26-.24.29c-.08.09-.14.18-.21.27s-.16.21-.23.32l-.19.29c-.07.11-.14.22-.2.33a3.07,3.07,0,0,0-.17.31L1,5.6l-.15.34a2.4,2.4,0,0,0-.11.23l0,.06A9.58,9.58,0,0,0,.32,7.51s0,.09,0,.14A11.38,11.38,0,0,0,.06,9a.78.78,0,0,1,0,.16c0,.3,0,.59,0,.89V36.3a10,10,0,0,0,20,0V34.14L35.33,49.47A10,10,0,0,0,49.47,35.33Z"/><path class="cls-1" d="M130.9,95a10,10,0,0,0-10,10v2.16L105.57,91.85A10,10,0,1,0,91.43,106l15.33,15.33h-2.17a10,10,0,0,0,0,20h26.32a8.46,8.46,0,0,0,.87,0l.26,0,.64-.1.26-.05c.26,0,.52-.12.77-.19l.09,0q.44-.13.84-.3l.09,0,.22-.11.35-.16.33-.17.31-.17.33-.21.29-.18.32-.23.26-.21a3.61,3.61,0,0,0,.3-.25l.26-.23.27-.25.25-.27.24-.26.24-.3a3.17,3.17,0,0,0,.21-.27l.23-.31.19-.29.2-.33.17-.31.18-.34.15-.34a1.63,1.63,0,0,0,.11-.23s0,0,0-.06a9.44,9.44,0,0,0,.42-1.27.57.57,0,0,1,0-.14,11.38,11.38,0,0,0,.22-1.3c0-.06,0-.11,0-.16a8.85,8.85,0,0,0,.05-.89V105A10,10,0,0,0,130.9,95Z"/><path class="cls-1" d="M35.33,91.85,20,107.17V105a10,10,0,0,0-20,0v26.31c0,.3,0,.59,0,.89a.78.78,0,0,1,0,.16,11.38,11.38,0,0,0,.22,1.3s0,.09,0,.14a9.44,9.44,0,0,0,.42,1.27s0,0,0,.06a1.63,1.63,0,0,0,.11.23l.15.34.18.34.17.31c.06.11.13.22.2.33l.19.29.23.31a1.94,1.94,0,0,0,.21.27l.24.3.24.26.25.27.27.25.26.23.29.25.27.21.32.23.29.18L5,140l.31.17.33.17.34.16.23.11.09,0q.41.16.84.3l.09,0c.25.07.51.14.77.19l.26.05.64.1.26,0a8.46,8.46,0,0,0,.87,0H36.3a10,10,0,1,0,0-20H34.14L49.47,106A10,10,0,1,0,35.33,91.85Z"/></g></g></svg>