<svg xmlns="http://www.w3.org/2000/svg" viewBox="0 0 141.04 114.41"><defs><style>.cls-1{fill:#231f20;}</style></defs><g id="Layer_2" data-name="Layer 2"><g id="Layer_1-2" data-name="Layer 1"><path class="cls-1" d="M53.87,114.41a10,10,0,0,1-7.11-3c-.13-.14-.27-.28-.39-.43L30.12,94.92H10a10,10,0,0,1-10-10V10A10,10,0,0,1,10,0H131a10,10,0,0,1,10,10V85a10,10,0,0,1-10,10H77.61l-16.7,16.56A10,10,0,0,1,53.87,114.41ZM20,74.92H34.23a10,10,0,0,1,7,2.89l12.61,12.5L66.46,77.85a10,10,0,0,1,7-2.9H121V20H20Z"/></g></g></svg>