<svg xmlns="http://www.w3.org/2000/svg" viewBox="0 0 90.08 141.28"><defs><style>.cls-1{fill:#231f20;}</style></defs><g id="Layer_2" data-name="Layer 2"><g id="Layer_1-2" data-name="Layer 1"><path class="cls-1" d="M80.08,43.45a10,10,0,0,0-10,10v15.1a25,25,0,0,1-50,0V66.87L20,63.11l0-9.49a9.77,9.77,0,0,0-.49-3.07A10,10,0,0,0,0,53.62V68.55a9.67,9.67,0,0,0,.12,1.53v0A45.11,45.11,0,0,0,35,111.45v9.83H24.06a10,10,0,0,0,0,20H65.85a10,10,0,0,0,0-20H55V111.5A45.09,45.09,0,0,0,90,69.58a.31.31,0,0,0,0-.1c0-.63,0-1.26,0-1.9V53.45A10,10,0,0,0,80.08,43.45Z"/><path class="cls-1" d="M45.13,86.66A20.79,20.79,0,0,0,65.89,65.9V20.76a20.76,20.76,0,1,0-41.52,0V65.9A20.79,20.79,0,0,0,45.13,86.66Zm-.76-65.9a.76.76,0,1,1,1.52,0V65.9a.76.76,0,1,1-1.52,0Z"/></g></g></svg>