<svg id="Layer_1" data-name="Layer 1" xmlns="http://www.w3.org/2000/svg" viewBox="0 0 200 200"><defs><style>.cls-1,.cls-4{fill:none;}.cls-2{fill:#231f20;}.cls-3{fill:#fff;}.cls-4{stroke:#231f20;stroke-linecap:round;stroke-linejoin:round;stroke-width:20px;}</style></defs><title>Untitled-1</title><path class="cls-1" d="M125.11,98V92.53h0V98a9.88,9.88,0,0,0,1.24,4.8A10.09,10.09,0,0,1,125.11,98ZM75.05,92.56l0,0V98a10,10,0,0,1-3,7.1,9.84,9.84,0,0,0,3-7.1V96.32Zm0,0,0,0V98a10,10,0,0,1-3,7.1,9.84,9.84,0,0,0,3-7.1V96.32ZM125.11,98V92.53h0V98a9.88,9.88,0,0,0,1.24,4.8A10.09,10.09,0,0,1,125.11,98ZM75.05,92.56l0,0V98a10,10,0,0,1-3,7.1,9.84,9.84,0,0,0,3-7.1V96.32ZM125.11,98V92.53h0V98a9.88,9.88,0,0,0,1.24,4.8A10.09,10.09,0,0,1,125.11,98Zm0,0V92.53h0V98a9.88,9.88,0,0,0,1.24,4.8A10.09,10.09,0,0,1,125.11,98ZM75.05,92.56l0,0V98a10,10,0,0,1-3,7.1,9.84,9.84,0,0,0,3-7.1V96.32Zm50,3.65v1.68c0-.29,0-.57,0-.86S125.11,96.48,125.09,96.21Zm-50,.82c0,.28,0,.57,0,.85V96.32C75.08,96.56,75.08,96.79,75.08,97Zm50,1V92.53h0V98a9.88,9.88,0,0,0,1.24,4.8A10.09,10.09,0,0,1,125.11,98ZM75.05,92.56l0,0V98a10,10,0,0,1-3,7.1,9.84,9.84,0,0,0,3-7.1V96.32Z"/><path class="cls-2" d="M145.11,97v1c0,.31,0,.62,0,.93C145.1,98.3,145.11,97.67,145.11,97Z"/><path class="cls-3" d="M75.1,96.32V98a9.84,9.84,0,0,1-3,7.1A10,10,0,0,0,75,98V92.58l0,0Z"/><path class="cls-3" d="M126.33,102.8a9.88,9.88,0,0,1-1.24-4.8V92.52h0V98A10.09,10.09,0,0,0,126.33,102.8Z"/><path class="cls-2" d="M125.1,92.52v3.69c0,.27,0,.55,0,.82v-4.5Zm0,5.48V97c0,.29,0,.57,0,.86V98a9.88,9.88,0,0,0,1.24,4.8A10.09,10.09,0,0,1,125.11,98Zm-50-1.68,0-3.76,0,0V98a10,10,0,0,1-3,7.1,9.84,9.84,0,0,0,3-7.1v-.12c0-.28,0-.57,0-.85S75.08,96.56,75.1,96.32Z"/><path class="cls-2" d="M145.11,82.9V97c0,.64,0,1.27,0,1.9a.31.31,0,0,1,0,.1A45.09,45.09,0,0,1,110,141v9.78h10.9a10,10,0,1,1,0,20H79.09a10,10,0,0,1,0-20H90V140.9A45.11,45.11,0,0,1,55.15,99.55v0A9.67,9.67,0,0,1,55,98V83.07A10,10,0,0,1,74.54,80,9.77,9.77,0,0,1,75,83.07l0,9.49,0,0V98a10,10,0,0,1-3,7.1,9.84,9.84,0,0,0,3-7.1,25,25,0,0,0,50,0,9.88,9.88,0,0,0,1.24,4.8,10.09,10.09,0,0,1-1.22-4.8V92.53h0V82.9a10,10,0,1,1,20,0Z"/><path class="cls-2" d="M75.1,96.32V98a9.84,9.84,0,0,1-3,7.1A10,10,0,0,0,75,98V92.58l0,0Z"/><path class="cls-2" d="M126.33,102.8a9.88,9.88,0,0,1-1.24-4.8V92.52h0V98A10.09,10.09,0,0,0,126.33,102.8Z"/><rect class="cls-4" x="89.4" y="39.45" width="21.52" height="66.66" rx="10.76"/></svg>