<svg xmlns="http://www.w3.org/2000/svg" viewBox="0 0 140.9 141.32"><defs><style>.cls-1{fill:#231f20;}</style></defs><g id="Layer_2" data-name="Layer 2"><g id="Layer_1-2" data-name="Layer 1"><path class="cls-1" d="M88.56,43.44a11,11,0,0,0,.22,1.3.83.83,0,0,1,0,.15,9.44,9.44,0,0,0,.42,1.27s0,0,0,.06a1.63,1.63,0,0,0,.11.23l.15.34.18.34.17.31c.06.11.13.22.2.33l.19.28a3.71,3.71,0,0,0,.23.32l.21.27.24.3.24.26.25.26.27.26L92,50l.29.25.27.21.32.23.29.18.33.21.31.17.33.17.34.16.23.11a.32.32,0,0,1,.09,0,7.55,7.55,0,0,0,.84.29l.09,0c.25.07.51.14.77.19l.26,0c.21,0,.43.07.64.09a2.3,2.3,0,0,0,.26,0,8.46,8.46,0,0,0,.87,0h26.32a10,10,0,0,0,0-20h-2.17L138,17.07A10,10,0,1,0,123.83,2.93L108.5,18.25V16.09a10,10,0,0,0-20,0V42.4c0,.29,0,.59,0,.88A1,1,0,0,1,88.56,43.44Z"/><path class="cls-1" d="M42.4,6.09a10,10,0,0,0-10,10v2.16L17.07,2.93A10,10,0,0,0,2.93,17.07L18.25,32.4H16.09a10,10,0,0,0,0,20H42.41a8.46,8.46,0,0,0,.87,0l.25,0c.22,0,.43,0,.65-.09l.26,0c.26,0,.52-.12.77-.19l.09,0a8.33,8.33,0,0,0,.84-.29l.08,0,.23-.11.34-.16.34-.17.31-.17.33-.21.28-.18.32-.23.27-.21.3-.25.26-.23.26-.26.26-.26c.08-.09.16-.17.23-.26l.25-.3.21-.27c.08-.1.15-.21.23-.32l.18-.28.21-.33.17-.31a3.59,3.59,0,0,0,.17-.34,3.54,3.54,0,0,0,.16-.34l.11-.23a.14.14,0,0,1,0-.06c.16-.41.3-.84.42-1.27l0-.15a9.3,9.3,0,0,0,.23-1.3s0-.1,0-.16a8.65,8.65,0,0,0,0-.88V16.09A10,10,0,0,0,42.4,6.09Z"/><path class="cls-1" d="M122.64,108.92h2.17a10,10,0,0,0,0-20H98.5c-.3,0-.6,0-.89,0l-.15,0a11.55,11.55,0,0,0-1.31.22l-.13,0a9.13,9.13,0,0,0-1.28.42l-.07,0-.23.11-.34.15-.33.18-.31.17-.33.2-.29.19-.32.23-.27.21-.29.24-.26.24-.27.25-.25.27-.24.26-.24.29-.21.27c-.08.11-.16.21-.23.32l-.19.29c-.07.11-.14.22-.2.33a3.07,3.07,0,0,0-.17.31l-.18.33-.15.34-.11.23s0,0,0,.06a9.58,9.58,0,0,0-.42,1.28.57.57,0,0,1,0,.14,11.38,11.38,0,0,0-.22,1.3.78.78,0,0,1,0,.16c0,.3,0,.59,0,.89v26.3a10,10,0,0,0,20,0v-2.16l15.33,15.33A10,10,0,1,0,138,124.25Z"/><path class="cls-1" d="M52.34,97.87a9.56,9.56,0,0,0-.23-1.3l0-.14c-.12-.44-.26-.86-.42-1.28a.14.14,0,0,1,0-.06,1.63,1.63,0,0,1-.11-.23l-.16-.34c0-.11-.11-.22-.17-.33L51,93.88l-.21-.33-.18-.29-.23-.32-.21-.27L50,92.38a2.85,2.85,0,0,0-.23-.26l-.26-.27-.26-.25-.26-.24-.3-.24-.27-.21-.32-.23-.28-.19-.33-.2-.31-.17-.34-.18-.34-.15-.23-.11-.06,0a9.13,9.13,0,0,0-1.28-.42l-.13,0A11.55,11.55,0,0,0,43.44,89l-.15,0c-.3,0-.59,0-.89,0H16.09a10,10,0,0,0,0,20h2.16L2.93,124.25a10,10,0,1,0,14.14,14.14L32.4,123.06v2.16a10,10,0,0,0,20,0V98.92a8.85,8.85,0,0,0,0-.89S52.34,97.93,52.34,97.87Z"/></g></g></svg>