<svg xmlns="http://www.w3.org/2000/svg" viewBox="0 0 111.91 141"><defs><style>.cls-1{fill:#231f20;}</style></defs><g id="Layer_2" data-name="Layer 2"><g id="Layer_1-2" data-name="Layer 1"><path class="cls-1" d="M92,0H20.48A20.48,20.48,0,0,0,0,20.48v100A20.48,20.48,0,0,0,20.48,141h71a20.48,20.48,0,0,0,20.48-20.48V19.93A19.93,19.93,0,0,0,92,0Zm-.07,47.51v66A7.53,7.53,0,0,1,84.38,121H27.53A7.53,7.53,0,0,1,20,113.47V27.53A7.53,7.53,0,0,1,27.53,20h57.4a7,7,0,0,1,7,7Z"/><path class="cls-1" d="M71.12,105H41.5a5,5,0,1,0,0,10H71.12a5,5,0,0,0,0-10Z"/></g></g></svg>