<svg xmlns="http://www.w3.org/2000/svg" viewBox="0 0 139.91 141.49"><defs><style>.cls-1{fill:#231f20;}</style></defs><g id="Layer_2" data-name="Layer 2"><g id="Layer_1-2" data-name="Layer 1"><path class="cls-1" d="M120,0H20.48A20.48,20.48,0,0,0,0,20.48v63A20.48,20.48,0,0,0,20.48,104H60v17.49H25.33a10,10,0,1,0,0,20h88.31a10,10,0,0,0,0-20H80V104h39.48a20.48,20.48,0,0,0,20.48-20.48V19.93A19.93,19.93,0,0,0,120,0Zm-.07,47.51v29A7.53,7.53,0,0,1,112.38,84H27.53A7.53,7.53,0,0,1,20,76.47V27.53A7.53,7.53,0,0,1,27.53,20h85.4a7,7,0,0,1,7,7Z"/></g></g></svg>