<svg xmlns="http://www.w3.org/2000/svg" viewBox="0 0 140.66 100.39"><defs><style>.cls-1{fill:#231f20;}</style></defs><g id="Layer_2" data-name="Layer 2"><g id="Layer_1-2" data-name="Layer 1"><path class="cls-1" d="M69.27.62,38.1,23.11H9a9,9,0,0,0-9,9V68.24a9,9,0,0,0,9,9H38.1L69.28,99.77a9,9,0,0,0,12.3-8.44V9.05A9,9,0,0,0,69.27.62Z"/><path class="cls-1" d="M127.28,49.23l10.45-10.46a10,10,0,0,0-14.14-14.14L113.14,35.08,102.75,24.69A10,10,0,0,0,88.61,38.83L99,49.23,88.54,59.68a10,10,0,0,0,14.15,14.14l10.45-10.45,10.39,10.39a10,10,0,0,0,14.14-14.14Z"/></g></g></svg>