<svg xmlns="http://www.w3.org/2000/svg" viewBox="0 0 118.63 141.38"><defs><style>.cls-1{fill:#231f20;}</style></defs><g id="Layer_2" data-name="Layer 2"><g id="Layer_1-2" data-name="Layer 1"><path class="cls-1" d="M108.63,141.38a10,10,0,0,1-5.14-1.42L58.94,113.22l-43.73,26.7A10,10,0,0,1,.74,127.61L50.25,6.22A10,10,0,0,1,59.51,0h0a10,10,0,0,1,9.26,6.25L117.9,127.63a10,10,0,0,1-9.27,13.75ZM58.89,91.53A10,10,0,0,1,64,93l24.11,14.47L59.47,36.57,30.75,107,53.68,93A10.06,10.06,0,0,1,58.89,91.53Z"/></g></g></svg>