<svg xmlns="http://www.w3.org/2000/svg" viewBox="0 0 116.47 141.22"><defs><style>.cls-1{fill:#231f20;}</style></defs><g id="Layer_2" data-name="Layer 2"><g id="Layer_1-2" data-name="Layer 1"><path class="cls-1" d="M58.24,0A58.23,58.23,0,0,0,0,58.23c0,1.5.06,3,.16,4.48v40.43a13.32,13.32,0,0,0,13.33,13.32H103a13.32,13.32,0,0,0,13.33-13.32V62.83c.12-1.52.17-3.06.17-4.6A58.23,58.23,0,0,0,58.24,0ZM93,93H23.48V58.19a34.76,34.76,0,0,1,69.52,0Z"/><path class="cls-1" d="M37.61,121.68c0,.16,0,.33,0,.5,0,10.52,9.15,19,20.43,19s20.44-8.52,20.44-19c0-.17,0-.34,0-.5Z"/></g></g></svg>