<svg xmlns="http://www.w3.org/2000/svg" viewBox="0 0 144.43 141.42"><defs><style>.cls-1{fill:#231f20;}</style></defs><g id="Layer_2" data-name="Layer 2"><g id="Layer_1-2" data-name="Layer 1"><path class="cls-1" d="M54.56,61h0A54.56,54.56,0,0,0,0,115.59v19.73a6.1,6.1,0,0,0,6.1,6.1H103a6.1,6.1,0,0,0,6.1-6.1V115.59A54.57,54.57,0,0,0,54.56,61Zm34.57,60.39H20v-5.83a34.57,34.57,0,0,1,69.13,0Z"/><path class="cls-1" d="M88,27.72a27.55,27.55,0,0,1-6.8,18.18,5,5,0,0,0,2.25,8,27.72,27.72,0,1,0,.07-52.37,5.11,5.11,0,0,0-2.23,8.12A27.6,27.6,0,0,1,88,27.72Z"/><path class="cls-1" d="M54.57,55.44A27.72,27.72,0,1,0,26.85,27.72,27.59,27.59,0,0,0,54.57,55.44Z"/><path class="cls-1" d="M128.45,77a54.54,54.54,0,0,0-26.19-14.57,2.87,2.87,0,0,0-2.67,4.85c.39.36.77.73,1.15,1.11a54.45,54.45,0,0,1,13.67,22.85,34.33,34.33,0,0,1,10,24.34v5.83h-7.71v20h21.61a6.1,6.1,0,0,0,6.1-6.1V115.59A54.39,54.39,0,0,0,128.45,77Z"/></g></g></svg>