<svg xmlns="http://www.w3.org/2000/svg" viewBox="0 0 141.43 140.68"><defs><style>.cls-1{fill:#231f20;}</style></defs><g id="Layer_2" data-name="Layer 2"><g id="Layer_1-2" data-name="Layer 1"><path class="cls-1" d="M67.25.78,5.23,30A9.48,9.48,0,0,0,0,38.6v64.16a9.46,9.46,0,0,0,5.31,8.67l62.19,28.5a8.08,8.08,0,0,0,6.8,0l61.84-28.49a9.47,9.47,0,0,0,5.29-8.67V38.6A9.48,9.48,0,0,0,136.2,30L74.19.78A8.11,8.11,0,0,0,67.25.78Zm4.19,21.49,44.14,17.91a2.29,2.29,0,0,1,.08,4.11l-44,20.25a1.87,1.87,0,0,1-1.6,0L25.82,44.26a2.29,2.29,0,0,1,.08-4.12L70,22.27A1.89,1.89,0,0,1,71.44,22.27ZM58.06,112.1,21.25,95.22a2.21,2.21,0,0,1-1.25-2V68.45a2.06,2.06,0,0,1,2.84-2L59.65,83.28a2.23,2.23,0,0,1,1.25,2v24.74A2.07,2.07,0,0,1,58.06,112.1ZM90.34,79.48l28.25-13a2.06,2.06,0,0,1,2.84,2V93.21a2.23,2.23,0,0,1-1.24,2L83.74,112a2.06,2.06,0,0,1-2.84-2V85.3a2.23,2.23,0,0,1,1.24-2Z"/></g></g></svg>