<svg xmlns="http://www.w3.org/2000/svg" viewBox="0 0 141.43 141.43"><defs><style>.cls-1{fill:#231f20;}</style></defs><g id="Layer_2" data-name="Layer 2"><g id="Layer_1-2" data-name="Layer 1"><path class="cls-1" d="M126.41,61.7A45.24,45.24,0,1,0,39.09,43,35.28,35.28,0,0,0,34,42.59a34,34,0,0,0-2.94,67.91h87.37a25.63,25.63,0,0,0,22.39-20,25.63,25.63,0,0,0-14.43-28.8ZM117,90.5a5.7,5.7,0,0,1-2.42,0H35.92a13.95,13.95,0,0,1-3.8,0A14,14,0,1,1,45.55,68.64a.05.05,0,0,1,0,0l.07.1v0A10.07,10.07,0,1,0,62.6,58.16L62.51,58A25.08,25.08,0,0,1,59,44.51a25.24,25.24,0,0,1,50.46.73,25.16,25.16,0,0,1-8.75,19.08s0,0,0,0c-.18.16-.37.32-.56.46l0,0a7.4,7.4,0,0,0-.83.85A10,10,0,0,0,112.91,80.2l0,0,.09-.08v0a5.62,5.62,0,0,1,5.18-.24,5.55,5.55,0,0,1,3.11,3.93A5.62,5.62,0,0,1,117,90.5Z"/><path class="cls-1" d="M28.49,131.43a10,10,0,0,0,20,0V120.36h-20Z"/><path class="cls-1" d="M60.87,131.43a10,10,0,0,0,10,10h0a10,10,0,0,0,10-10V120.36h-20Z"/><path class="cls-1" d="M92.91,131.43a10,10,0,0,0,20,0V120.36h-20Z"/></g></g></svg>