<svg xmlns="http://www.w3.org/2000/svg" viewBox="0 0 114.71 141.6"><defs><style>.cls-1{fill:#231f20;}</style></defs><g id="Layer_2" data-name="Layer 2"><g id="Layer_1-2" data-name="Layer 1"><path class="cls-1" d="M113,57a55.09,55.09,0,0,0-11.1-22A10,10,0,1,0,86.52,47.69a35.38,35.38,0,0,1,7.11,14.1,35.78,35.78,0,0,1-4.34,27.56,37.38,37.38,0,0,1-16.89,14.7,10,10,0,0,0-18.17-7.91L42.88,115a10,10,0,0,0,3.42,13.72l0,0,0,0,18.89,11.35a10,10,0,0,0,11.46-16.32,57.38,57.38,0,0,0,29.59-24A55.57,55.57,0,0,0,113,57Z"/><path class="cls-1" d="M42.3,37.55a10,10,0,0,0,18.18,7.91l11.35-18.9a10,10,0,0,0-3.42-13.72l0,0,0,0L49.42,1.43A10,10,0,0,0,38,17.75a57.3,57.3,0,0,0-29.59,24,55.72,55.72,0,0,0,4.4,64.87A10,10,0,1,0,28.19,93.91a35.25,35.25,0,0,1-7.11-14.1,35.69,35.69,0,0,1,4.34-27.56A37.41,37.41,0,0,1,42.3,37.55Z"/></g></g></svg>