<svg id="Layer_1" data-name="Layer 1" xmlns="http://www.w3.org/2000/svg" viewBox="0 0 200 200"><defs><style>.cls-1{fill:#231f20;}.cls-2{fill:none;stroke:#231f20;stroke-miterlimit:10;stroke-width:20px;}</style></defs><title>Untitled-1</title><path class="cls-1" d="M49.5,49.42h0M150.5,77v66a7.57,7.57,0,0,1-7.61,7.53H57.11A7.57,7.57,0,0,1,49.5,143V57a7.57,7.57,0,0,1,7.61-7.53h86.33a7,7,0,0,1,7.06,7Zm.07-47.51H50A20.6,20.6,0,0,0,29.28,50V150A20.6,20.6,0,0,0,50,170.5H150A20.6,20.6,0,0,0,170.72,150V49.43A20.05,20.05,0,0,0,150.57,29.5Z"/><line class="cls-2" x1="160.02" y1="79.79" x2="40.02" y2="79.79"/><line class="cls-2" x1="160.02" y1="120.14" x2="40.02" y2="120.14"/></svg>