<svg xmlns="http://www.w3.org/2000/svg" viewBox="0 0 124.31 141.48"><defs><style>.cls-1{fill:#231f20;}</style></defs><g id="Layer_2" data-name="Layer 2"><g id="Layer_1-2" data-name="Layer 1"><path class="cls-1" d="M121.89,39.57,91.07,3.67A10,10,0,0,0,83.5.18L10,0h0A10,10,0,0,0,0,10V131.48a10,10,0,0,0,10,10H114.31a10,10,0,0,0,10-10V46.08A10,10,0,0,0,121.89,39.57ZM48.25,20.09l6.8,0V32.57h-6.8ZM78.43,121.48H45.88V93.55H78.43Zm25.88,0H98.43V83.55a10,10,0,0,0-10-10H35.88a10,10,0,0,0-10,10v37.93H20V20l8.25,0V42.57a10,10,0,0,0,10,10h26.8a10,10,0,0,0,10-10V20.16h3.83l25.43,29.62Z"/></g></g></svg>