<svg id="Layer_1" data-name="Layer 1" xmlns="http://www.w3.org/2000/svg" viewBox="0 0 200 200"><defs><style>.cls-1{fill:#231f20;}.cls-2{fill:none;stroke:#231f20;stroke-linecap:round;stroke-linejoin:round;stroke-width:20px;}</style></defs><title>Untitled-1</title><path class="cls-1" d="M71.33,150.49v20H49.44a19.92,19.92,0,0,1-19.93-19.92V128.7h20v21.79Z"/><path class="cls-1" d="M170.49,128.7v21.87a19.91,19.91,0,0,1-19.92,19.92H128.71v-20h21.78V128.7Z"/><path class="cls-1" d="M170.49,49.44V71.31h-20V49.51H128.71v-20h21.86A19.92,19.92,0,0,1,170.49,49.44Z"/><path class="cls-1" d="M71.33,29.51v20H49.51v21.8h-20V49.44A19.93,19.93,0,0,1,49.44,29.51Z"/><line class="cls-2" x1="139.74" y1="99.98" x2="60.26" y2="100.02"/></svg>