<svg id="Layer_1" data-name="Layer 1" xmlns="http://www.w3.org/2000/svg" viewBox="0 0 200 200"><defs><style>.cls-1{fill:#231f20;}.cls-2{fill:none;stroke:#231f20;stroke-linecap:round;stroke-linejoin:round;stroke-width:20px;}</style></defs><title>Untitled-1</title><path class="cls-1" d="M54,49.29A14.72,14.72,0,1,1,39.26,64,14.74,14.74,0,0,1,54,49.29m0-10A24.72,24.72,0,1,0,78.7,64,24.72,24.72,0,0,0,54,39.29Z"/><path class="cls-1" d="M54,121.29A14.72,14.72,0,1,1,39.26,136,14.73,14.73,0,0,1,54,121.29m0-10A24.72,24.72,0,1,0,78.7,136,24.72,24.72,0,0,0,54,111.29Z"/><line class="cls-2" x1="73.32" y1="81.54" x2="160.48" y2="160.51"/><line class="cls-2" x1="72.29" y1="119.4" x2="161.22" y2="38.77"/></svg>