<svg xmlns="http://www.w3.org/2000/svg" viewBox="0 0 141.95 141.74"><defs><style>.cls-1{fill:#231f20;}</style></defs><g id="Layer_2" data-name="Layer 2"><g id="Layer_1-2" data-name="Layer 1"><path class="cls-1" d="M79.32,71.22l59.35-53.81A10,10,0,0,0,125.24,2.59L64.43,57.73,50.77,45.36A9.6,9.6,0,0,0,48,43.58a24.73,24.73,0,1,0-12.69,14,10.1,10.1,0,0,0,2,2.6l12.2,11.05-13.23,12A11.32,11.32,0,0,0,35,84.73,24.73,24.73,0,1,0,48.11,99.24,10.92,10.92,0,0,0,49.75,98L64.43,84.72l60.07,54.43a10,10,0,1,0,13.43-14.82ZM10,35.24A14.72,14.72,0,1,1,24.72,50,14.74,14.74,0,0,1,10,35.24ZM24.72,122a14.72,14.72,0,1,1,14.72-14.72A14.73,14.73,0,0,1,24.72,122Z"/></g></g></svg>