<svg xmlns="http://www.w3.org/2000/svg" viewBox="0 0 132.9 141.43"><defs><style>.cls-1{fill:none;}.cls-2{fill:#231f20;}</style></defs><g id="Layer_2" data-name="Layer 2"><g id="Layer_1-2" data-name="Layer 1"><path class="cls-1" d="M124.73,43.11h0"/><path class="cls-2" d="M131.5,92.65l-16.18-13.2a49.95,49.95,0,0,0,0-17.64l16.12-13.16a4.37,4.37,0,0,0,.74-5.58l-9-15.57c-.11-.19-.23-.36-.35-.53a4.76,4.76,0,0,0-.41-.47,4.38,4.38,0,0,0-.45-.41,5.36,5.36,0,0,0-.49-.34,5.12,5.12,0,0,0-.52-.27,4,4,0,0,0-1.66-.36,3.64,3.64,0,0,0-1.3.23l-19.6,7.44a49.42,49.42,0,0,0-15.2-8.7L79.83,3.43A4.37,4.37,0,0,0,75.36,0h-18a4.35,4.35,0,0,0-4.45,3.41L49.55,24.28A49.14,49.14,0,0,0,34.63,33L14.87,25.49a3.74,3.74,0,0,0-1.31-.24,4.44,4.44,0,0,0-2.68,1c-.16.13-.31.27-.46.41s-.22.24-.32.37a2.27,2.27,0,0,0-.18.25,3.3,3.3,0,0,0-.26.39l-9,15.58a4.35,4.35,0,0,0,.74,5.56L17.89,62.22a49.58,49.58,0,0,0-.73,8.5,50.44,50.44,0,0,0,.75,8.66L1.5,92.78a4.36,4.36,0,0,0-.74,5.58l9,15.58a5,5,0,0,0,1.09,1.3,2,2,0,0,0,.3.23.47.47,0,0,0,.12.09q.22.15.45.27A2.41,2.41,0,0,0,12,116l.18.07.14,0a3,3,0,0,0,.4.12l.13,0a3.32,3.32,0,0,0,.44.06h.31l.32,0a3.32,3.32,0,0,0,1-.22l19.84-7.53a49.41,49.41,0,0,0,14.94,8.66L53.08,138a4.37,4.37,0,0,0,4.47,3.43h18A4.35,4.35,0,0,0,80,138l3.36-20.74a49,49,0,0,0,15.17-8.76L118,115.94a3.7,3.7,0,0,0,1.31.24,4.44,4.44,0,0,0,3.13-1.38c.14-.15.28-.31.41-.48a5.41,5.41,0,0,0,.35-.53l9-15.58A4.37,4.37,0,0,0,131.5,92.65ZM66.63,90.18A19.47,19.47,0,1,1,86.09,70.72,19.48,19.48,0,0,1,66.63,90.18Z"/></g></g></svg>