<svg xmlns="http://www.w3.org/2000/svg" viewBox="0 0 126.43 141.43"><defs><style>.cls-1{fill:#231f20;}</style></defs><g id="Layer_2" data-name="Layer 2"><g id="Layer_1-2" data-name="Layer 1"><path class="cls-1" d="M96.43,81.43a29.89,29.89,0,0,0-19.28,7L59,78.51a30.07,30.07,0,0,0,0-15.68l17.77-9.77A30.14,30.14,0,1,0,66.15,30.14a30.6,30.6,0,0,0,.53,5.62L47.46,46.32a30,30,0,1,0,.08,48.73L67,105.69A30,30,0,1,0,96.43,81.43ZM96.29,20A10.14,10.14,0,1,1,86.15,30.14,10.15,10.15,0,0,1,96.29,20ZM20,70.72a10,10,0,1,1,10,10A10,10,0,0,1,20,70.72Zm76.43,50.71a10,10,0,1,1,10-10A10,10,0,0,1,96.43,121.43Z"/></g></g></svg>