<svg xmlns="http://www.w3.org/2000/svg" viewBox="0 0 140.32 140.85"><defs><style>.cls-1{fill:#231f20;}</style></defs><g id="Layer_2" data-name="Layer 2"><g id="Layer_1-2" data-name="Layer 1"><path class="cls-1" d="M131.85,36.35H47.11L42.43,10.7A12.86,12.86,0,0,0,29.71,0h-.12L9.92.17a10,10,0,0,0,.08,20h.08l13.73-.12L28.2,44.12a8.25,8.25,0,0,0,.12,2.37l11.15,61a8.46,8.46,0,0,0,8.3,6.8H123.7a8.47,8.47,0,0,0,8.31-6.8l8.14-61A8.48,8.48,0,0,0,131.85,36.35ZM113.59,94.27H57.67L50.75,56.35h67.9Z"/><circle class="cls-1" cx="116.28" cy="130.85" r="10"/><circle class="cls-1" cx="53.99" cy="130.85" r="10"/></g></g></svg>