<svg xmlns="http://www.w3.org/2000/svg" viewBox="0 0 141.54 109.52"><defs><style>.cls-1{fill:#231f20;}</style></defs><g id="Layer_2" data-name="Layer 2"><g id="Layer_1-2" data-name="Layer 1"><path class="cls-1" d="M10,35.38H36.67c.26,0,.55,0,.81,0C42,35,55.14,35.49,62,41.85l.23.22a37.82,37.82,0,0,1,3.48-10A34,34,0,0,1,71.57,24C57.91,14.46,40,15.12,36.29,15.38H10a10,10,0,0,0,0,20Z"/><path class="cls-1" d="M139.25,78.33a10,10,0,0,0-2.14-1.93L120,62.11A10,10,0,0,0,104.6,74.23c-4.44-.72-9-2.2-12.3-5a13.37,13.37,0,0,1-2.23-2.47c-.09.62-.2,1.24-.33,1.84a36.46,36.46,0,0,1-3,9A33.57,33.57,0,0,1,81,85.8c7.47,5.65,16.41,7.9,23.91,8.68a10,10,0,0,0,15,12.76l18-14.83A10,10,0,0,0,139.25,78.33Z"/><path class="cls-1" d="M85.37,66.2a42.55,42.55,0,0,0,1.5-11.43v0a27.53,27.53,0,0,1,.47-5.33,15.37,15.37,0,0,1,4.91-9.06c3.28-2.86,7.89-4.35,12.36-5.07A10,10,0,0,0,120,47.42l17.23-14.36a10,10,0,0,0,.71-16l-18-14.82a10,10,0,0,0-15,12.76c-8.13.84-17.94,3.4-25.73,10.14a35.76,35.76,0,0,0-2.82,2.74,34.52,34.52,0,0,0-5.71,8.53,38.55,38.55,0,0,0-3.17,10.32,47.16,47.16,0,0,0-.62,6.55l-.06,0v2.8a20.54,20.54,0,0,1-.75,4.78A14.31,14.31,0,0,1,62,67.67c-5.38,5-14.59,6.36-20.49,6.56a35.79,35.79,0,0,1-4,0,7.87,7.87,0,0,0-.84,0H10A10,10,0,0,0,2.48,90.72a9,9,0,0,0,1.67,1.53h0A9.91,9.91,0,0,0,10,94.14H36.29c.75,0,2.05.12,3.78.12,7.78,0,24.06-1.37,35.44-11.83.3-.27.59-.55.88-.84a34,34,0,0,0,6.13-8.22A36,36,0,0,0,85.37,66.2Z"/></g></g></svg>