<svg xmlns="http://www.w3.org/2000/svg" viewBox="0 0 140.5 135.89"><defs><style>.cls-1{fill:#231f20;}</style></defs><g id="Layer_2" data-name="Layer 2"><g id="Layer_1-2" data-name="Layer 1"><path class="cls-1" d="M118.47,34.08,99.09,32.94,92,14.86a23.37,23.37,0,0,0-43.54,0L41.41,32.94,22,34.08A23.37,23.37,0,0,0,8.57,75.49l15,12.31-4.91,18.79a23.21,23.21,0,0,0,4.1,20.18,23.58,23.58,0,0,0,18.53,9.12,23.27,23.27,0,0,0,12.6-3.71l16.35-10.47,16.34,10.47a23.32,23.32,0,0,0,12.61,3.71,23.58,23.58,0,0,0,18.53-9.12,23.18,23.18,0,0,0,4.09-20.18l-4.9-18.79,15-12.3a23.38,23.38,0,0,0-13.46-41.42Zm.77,26L96,79.09a3.39,3.39,0,0,0-1.13,3.47l7.6,29.08a3.39,3.39,0,0,1-3.27,4.25,3.35,3.35,0,0,1-1.82-.55L72.07,99.13a3.34,3.34,0,0,0-3.64,0L43.12,115.34a3.35,3.35,0,0,1-1.82.55A3.39,3.39,0,0,1,38,111.64l7.6-29.08a3.37,3.37,0,0,0-1.12-3.47L21.25,60a3.38,3.38,0,0,1,1.95-6l30-1.76a3.4,3.4,0,0,0,2.95-2.15l10.94-28a3.38,3.38,0,0,1,6.3,0l10.94,28a3.39,3.39,0,0,0,3,2.15l30,1.76A3.37,3.37,0,0,1,119.24,60Z"/></g></g></svg>