<svg id="Layer_1" data-name="Layer 1" xmlns="http://www.w3.org/2000/svg" viewBox="0 0 200 200"><defs><style>.cls-1{fill:#231f20;}</style></defs><title>Untitled-1</title><path class="cls-1" d="M49.66,49.45h0m25.78.08V75.31H49.66V49.53H75.44m.06-20H49.59A19.94,19.94,0,0,0,29.66,49.46V75.37A19.94,19.94,0,0,0,49.59,95.31H75.5A19.94,19.94,0,0,0,95.44,75.37V49.46A19.94,19.94,0,0,0,75.5,29.53Z"/><path class="cls-1" d="M124.92,49.45h0m25.78.08V75.31H124.92V49.53H150.7m.06-20H124.85a19.93,19.93,0,0,0-19.93,19.93V75.37a19.93,19.93,0,0,0,19.93,19.94h25.91A19.94,19.94,0,0,0,170.7,75.37V49.46a19.94,19.94,0,0,0-19.94-19.93Z"/><path class="cls-1" d="M49.66,124.87h0m25.78.08v25.78H49.66V125H75.44m.06-20H49.59a19.93,19.93,0,0,0-19.93,19.93v25.91a19.94,19.94,0,0,0,19.93,19.94H75.5a19.94,19.94,0,0,0,19.94-19.94V124.88A19.93,19.93,0,0,0,75.5,105Z"/><path class="cls-1" d="M124.92,124.87h0m25.78.08v25.78H124.92V125H150.7m.06-20H124.85a19.93,19.93,0,0,0-19.93,19.93v25.91a19.93,19.93,0,0,0,19.93,19.94h25.91a19.94,19.94,0,0,0,19.94-19.94V124.88A19.93,19.93,0,0,0,150.76,105Z"/></svg>