<svg xmlns="http://www.w3.org/2000/svg" viewBox="0 0 141.03 141.19"><defs><style>.cls-1{fill:#231f20;}</style></defs><g id="Layer_2" data-name="Layer 2"><g id="Layer_1-2" data-name="Layer 1"><path class="cls-1" d="M45.84,0H19.93A19.93,19.93,0,0,0,0,19.93V45.84A19.93,19.93,0,0,0,19.93,65.78H45.84A19.94,19.94,0,0,0,65.78,45.84V19.93A19.93,19.93,0,0,0,45.84,0Zm-.07,45.78H20V20H45.78Z"/><path class="cls-1" d="M121.1,0H95.19A19.93,19.93,0,0,0,75.26,19.93V45.84A19.93,19.93,0,0,0,95.19,65.78H121.1A19.93,19.93,0,0,0,141,45.84V19.93A19.93,19.93,0,0,0,121.1,0ZM121,45.78H95.26V20H121Z"/><path class="cls-1" d="M45.84,75.42H19.93A19.93,19.93,0,0,0,0,95.35v25.91a19.93,19.93,0,0,0,19.93,19.93H45.84a19.93,19.93,0,0,0,19.94-19.93V95.35A19.93,19.93,0,0,0,45.84,75.42Zm-.07,45.77H20V95.42H45.78Z"/><path class="cls-1" d="M121.1,75.42H95.19A19.93,19.93,0,0,0,75.26,95.35v25.91a19.93,19.93,0,0,0,19.93,19.93H121.1A19.93,19.93,0,0,0,141,121.26V95.35A19.93,19.93,0,0,0,121.1,75.42ZM121,121.19H95.26V95.42H121Z"/></g></g></svg>