<svg xmlns="http://www.w3.org/2000/svg" viewBox="0 0 128.24 135.18"><defs><style>.cls-1{fill:#231f20;}</style></defs><g id="Layer_2" data-name="Layer 2"><g id="Layer_1-2" data-name="Layer 1"><path class="cls-1" d="M118.24,30.29H94.05l-.24,0H34.39l-.24,0H10a10,10,0,0,0,0,20h4.46v64.95a19.93,19.93,0,0,0,19.93,19.94H93.81a19.93,19.93,0,0,0,19.93-19.94V50.29h4.5a10,10,0,1,0,0-20Zm-24.5,84.89H34.46V50.29H93.74Z"/><path class="cls-1" d="M47.6,20H80A10,10,0,0,0,80,0H47.6a10,10,0,0,0,0,20Z"/></g></g></svg>