<svg xmlns="http://www.w3.org/2000/svg" viewBox="0 0 140.24 141.4"><defs><style>.cls-1{fill:#231f20;}</style></defs><g id="Layer_2" data-name="Layer 2"><g id="Layer_1-2" data-name="Layer 1"><path class="cls-1" d="M134.41,93.9a10,10,0,0,0-13.26,4.91l-3.25,7.08L93,53.25a10,10,0,0,0-13.18-4.83L41.94,65.64,19.35,6.44A10,10,0,0,0,.66,13.57L27.05,82.71a10,10,0,0,0,13.48,5.54L79.15,70.71l21,44.52-8.77-2.88a10,10,0,0,0-6.23,19l27.76,9.1.06,0a10,10,0,0,0,13.26-4.91l13.06-28.42A10,10,0,0,0,134.41,93.9Z"/></g></g></svg>