<svg xmlns="http://www.w3.org/2000/svg" viewBox="0 0 140.24 141.41"><defs><style>.cls-1{fill:#231f20;}</style></defs><g id="Layer_2" data-name="Layer 2"><g id="Layer_1-2" data-name="Layer 1"><path class="cls-1" d="M139.32,34.24l-13-28.41A10,10,0,0,0,113,.92l0,0L85.19,10.05a10,10,0,1,0,6.23,19l8.77-2.87-21,44.52L40.53,53.15a10,10,0,0,0-13.48,5.54L.66,127.84a10,10,0,0,0,5.78,12.91,10.14,10.14,0,0,0,3.56.66A10,10,0,0,0,19.35,135L41.94,75.76,79.85,93A10,10,0,0,0,93,88.15L117.9,35.51l3.25,7.08a10,10,0,0,0,9.09,5.83,9.83,9.83,0,0,0,4.17-.92A10,10,0,0,0,139.32,34.24Z"/></g></g></svg>