<svg id="Layer_1" data-name="Layer 1" xmlns="http://www.w3.org/2000/svg" viewBox="0 0 200 200"><defs><style>.cls-1{fill:#231f20;}</style></defs><title>Untitled-1</title><path class="cls-1" d="M29.46,81h0a9.71,9.71,0,0,0,.19,1.93c.06.32.14.63.23.94s.21.64.34,1c.06.14.12.28.19.42l.18.39A10.14,10.14,0,0,0,32.39,88L61,116.63a10,10,0,1,0,14.14-14.14L63.6,91h63.6a23.34,23.34,0,0,1,0,46.68H104a10,10,0,0,0,0,20H127.2a43.34,43.34,0,0,0,0-86.68H63.6L75.13,59.43A10,10,0,1,0,61,45.29l-28.6,28.6c-.12.12-.24.24-.35.37s-.22.25-.32.38-.21.26-.31.39-.19.27-.28.4l-.27.42-.24.43c-.07.15-.15.29-.21.44s-.14.3-.2.45-.12.3-.18.45a9.89,9.89,0,0,0-.36,1.32A9.73,9.73,0,0,0,29.46,81Z"/></svg>