<svg xmlns="http://www.w3.org/2000/svg" viewBox="0 0 140.99 137.04"><defs><style>.cls-1{fill:#231f20;}</style></defs><g id="Layer_2" data-name="Layer 2"><g id="Layer_1-2" data-name="Layer 1"><path class="cls-1" d="M108.75,63,77.4,37.23a10,10,0,0,0-13.26-.5L32.24,63A10,10,0,1,0,45,78.42L60.31,65.78V127a10,10,0,0,0,20,0V65.53L96,78.48A10,10,0,0,0,108.75,63Z"/><path class="cls-1" d="M139.42,12.17a20,20,0,0,0-1.83-3.38,20.34,20.34,0,0,0-2.44-2.95A19.86,19.86,0,0,0,125.08.4a20.45,20.45,0,0,0-4-.4H19.93a20.45,20.45,0,0,0-4,.4,19.82,19.82,0,0,0-3.74,1.17A20,20,0,0,0,8.79,3.4,20.32,20.32,0,0,0,3.4,8.79,19.81,19.81,0,0,0,0,19.93v58.2a10.43,10.43,0,1,0,20.85,0V19.71h99.28V78.13a10.43,10.43,0,0,0,10.42,10.43h0A10.42,10.42,0,0,0,141,78.13V19.93A19.88,19.88,0,0,0,139.42,12.17Z"/></g></g></svg>