<svg xmlns="http://www.w3.org/2000/svg" viewBox="0 0 119.28 120.52"><defs><style>.cls-1{fill:#231f20;}</style></defs><g id="Layer_2" data-name="Layer 2"><g id="Layer_1-2" data-name="Layer 1"><path class="cls-1" d="M10,69.82a10,10,0,0,0,7.11-3L59.33,24.17,102.22,66.9a10,10,0,0,0,14.12-14.17l-50-49.81A9.88,9.88,0,0,0,59.25,0a10,10,0,0,0-7.08,3L2.89,52.79a10,10,0,0,0,7.11,17Z"/><path class="cls-1" d="M66.34,53.62a10,10,0,0,0-14.17.05L2.89,103.49a10,10,0,0,0,14.22,14.07L59.33,74.87l42.89,42.74a10,10,0,0,0,14.12-14.17Z"/></g></g></svg>