<svg xmlns="http://www.w3.org/2000/svg" viewBox="0 0 141.45 74.8"><defs><style>.cls-1{fill:#231f20;}</style></defs><g id="Layer_2" data-name="Layer 2"><g id="Layer_1-2" data-name="Layer 1"><path class="cls-1" d="M74.17,0H18.86A18.88,18.88,0,0,0,0,18.86V55.94A18.88,18.88,0,0,0,18.86,74.8H74.17A18.88,18.88,0,0,0,93,55.94V18.86A18.88,18.88,0,0,0,74.17,0ZM73,54.8H20V20H73Z"/><path class="cls-1" d="M128.86,5.37a12,12,0,0,0-6.47,1.9L104.2,18.67a13.17,13.17,0,0,0-6.07,11.18V45a13.17,13.17,0,0,0,6.07,11.18l18.19,11.4a12,12,0,0,0,6.47,1.9,12.83,12.83,0,0,0,12.59-13.08V18.45A12.83,12.83,0,0,0,128.86,5.37Zm-6.33,37a1.63,1.63,0,0,1-2.5,1.38l-2.22-1.39A1.63,1.63,0,0,1,117,41v-7.1a1.63,1.63,0,0,1,.77-1.38L120,31.08a1.63,1.63,0,0,1,2.5,1.38Z"/></g></g></svg>