<svg id="Layer_1" data-name="Layer 1" xmlns="http://www.w3.org/2000/svg" viewBox="0 0 200 200"><defs><style>.cls-1{fill:#231f20;}</style></defs><title>Untitled-1</title><path class="cls-1" d="M67.38,72.94H38.32a9,9,0,0,0-9,9v36.08a9,9,0,0,0,9,9.05H67.38l31.18,22.49a9,9,0,0,0,12.3-8.44V58.89a9.05,9.05,0,0,0-12.31-8.44Z"/><path class="cls-1" d="M138.49,100a35,35,0,0,1-2.76,13.63,6.44,6.44,0,0,1-10.47,2l-8.45-8.46a6.21,6.21,0,0,1-1.83-5.32,12.49,12.49,0,0,0,.14-1.85A11.29,11.29,0,0,0,115,98.1a6.2,6.2,0,0,1,1.83-5.33l8.44-8.44a6.43,6.43,0,0,1,10.46,2A34.9,34.9,0,0,1,138.49,100Z"/><path class="cls-1" d="M170.71,100a57,57,0,0,1-15.47,39.06,6.45,6.45,0,0,1-9.27.18l-7.34-7.34a6.48,6.48,0,0,1-.28-9,33.74,33.74,0,0,0,0-45.93,6.49,6.49,0,0,1,.27-9l7.33-7.34a6.46,6.46,0,0,1,9.28.18A57,57,0,0,1,170.71,100Z"/></svg>