<svg xmlns="http://www.w3.org/2000/svg" viewBox="0 0 141.43 100.39"><defs><style>.cls-1{fill:#231f20;}</style></defs><g id="Layer_2" data-name="Layer 2"><g id="Layer_1-2" data-name="Layer 1"><path class="cls-1" d="M69.27.62,38.1,23.11H9a9,9,0,0,0-9,9V68.24a9,9,0,0,0,9,9H38.1L69.28,99.77a9,9,0,0,0,12.3-8.44V9.05A9,9,0,0,0,69.27.62Z"/><path class="cls-1" d="M106.41,36.48a6.43,6.43,0,0,0-10.46-2l-8.43,8.44a6.19,6.19,0,0,0-1.84,5.34,11.17,11.17,0,0,1,.16,1.93,12.49,12.49,0,0,1-.14,1.85,6.23,6.23,0,0,0,1.83,5.32L96,65.83a6.43,6.43,0,0,0,10.46-2,35,35,0,0,0,0-27.36Z"/><path class="cls-1" d="M125.91,11.07a6.45,6.45,0,0,0-9.27-.17l-7.34,7.33a6.5,6.5,0,0,0-.27,9,33.74,33.74,0,0,1,0,45.93,6.48,6.48,0,0,0,.28,9l7.34,7.34a6.44,6.44,0,0,0,9.27-.18,57.07,57.07,0,0,0,0-78.19Z"/></g></g></svg>