<svg xmlns="http://www.w3.org/2000/svg" viewBox="0 0 141.18 125.96"><defs><style>.cls-1{fill:#231f20;}</style></defs><g id="Layer_2" data-name="Layer 2"><g id="Layer_1-2" data-name="Layer 1"><path class="cls-1" d="M138.45,96.29,87.72,9.74a19.7,19.7,0,0,0-34,0l-51,86.54a19.71,19.71,0,0,0,17,29.71h101.7A19.71,19.71,0,0,0,138.45,96.29ZM114.94,106H26.26a3.44,3.44,0,0,1-3-5.18L67.76,25.32a3.44,3.44,0,0,1,5.93,0l44.22,75.46A3.44,3.44,0,0,1,114.94,106Z"/><path class="cls-1" d="M70.73,79.4a6.86,6.86,0,0,0,6.87-6.87V51.44a6.87,6.87,0,1,0-13.74,0V72.53A6.87,6.87,0,0,0,70.73,79.4Z"/><path class="cls-1" d="M70.73,82.82a7,7,0,1,0,7,7A7,7,0,0,0,70.73,82.82Z"/></g></g></svg>