<svg id="Layer_1" data-name="Layer 1" xmlns="http://www.w3.org/2000/svg" viewBox="0 0 200 200"><defs><style>.cls-1{fill:#fff;}.cls-2{fill:#231f20;}</style></defs><title>Untitled-1</title><path class="cls-1" d="M83.16,39l-51,86.54a19.72,19.72,0,0,0,17,29.72H150.87a19.71,19.71,0,0,0,17-29.68L117.15,39A19.71,19.71,0,0,0,83.16,39Z"/><path class="cls-2" d="M103.11,54.63l44.22,75.46a3.43,3.43,0,0,1-3,5.17H55.68a3.44,3.44,0,0,1-3-5.18L97.19,54.62A3.43,3.43,0,0,1,103.11,54.63Zm-3-25.34a19.55,19.55,0,0,0-17,9.71l-51,86.54a19.72,19.72,0,0,0,17,29.72H150.87a19.71,19.71,0,0,0,17-29.68L117.15,39a19.53,19.53,0,0,0-17-9.75Z"/><path class="cls-2" d="M100.16,73.86A6.88,6.88,0,0,1,107,80.73v21.1a6.87,6.87,0,0,1-13.74,0V80.73A6.88,6.88,0,0,1,100.16,73.86Z"/><circle class="cls-2" cx="100.16" cy="119.13" r="7.01"/></svg>