<svg xmlns="http://www.w3.org/2000/svg" viewBox="0 0 128.16 99.6"><defs><style>.cls-1{fill:#231f20;}</style></defs><g id="Layer_2" data-name="Layer 2"><g id="Layer_1-2" data-name="Layer 1"><path class="cls-1" d="M97.21,45a67,67,0,0,0-66.13-.13,14,14,0,0,0-3,22.15h0a14.2,14.2,0,0,0,17,2.46,38.57,38.57,0,0,1,38.14.09,14.22,14.22,0,0,0,17.06-2.46A14,14,0,0,0,97.21,45Z"/><path class="cls-1" d="M67,71.36q-1.45-.12-2.94-.12c-.69,0-1.36,0-2,.06C50,72,44.5,86.71,53,95.22l.22.22a14.13,14.13,0,0,0,10.52,4.08H64q.31,0,.63,0a13.42,13.42,0,0,0,10.59-4.11l.23-.22C83.81,86.86,78.74,72.34,67,71.36Z"/><path class="cls-1" d="M122.4,18.8A100,100,0,0,0,5.77,18.72,14,14,0,0,0,4.13,40l.18.18a13.94,13.94,0,0,0,17.94,1.57,71.57,71.57,0,0,1,83.64.06,13.93,13.93,0,0,0,18-1.58l.19-.19A14,14,0,0,0,122.4,18.8Z"/></g></g></svg>