<svg id="Layer_1" data-name="Layer 1" xmlns="http://www.w3.org/2000/svg" viewBox="0 0 200 200"><defs><style>.cls-1{fill:#231f20;}.cls-2,.cls-3{fill:#fff;}.cls-3{stroke:#231f20;stroke-linecap:round;stroke-linejoin:round;stroke-width:20px;}</style></defs><title>Untitled-1</title><path class="cls-1" d="M170,69.26c-.06-.15-.13-.3-.2-.45.07.13.13.27.19.41A.06.06,0,0,1,170,69.26Z"/><circle class="cls-2" cx="87.93" cy="87.93" r="48.66"/><path class="cls-1" d="M87.93,49.28A38.66,38.66,0,1,1,49.28,87.93,38.7,38.7,0,0,1,87.93,49.28m0-20a58.66,58.66,0,1,0,58.66,58.65A58.65,58.65,0,0,0,87.93,29.28Z"/><line class="cls-3" x1="123.53" y1="122.73" x2="160.32" y2="159.52"/><line class="cls-3" x1="66.85" y1="87.93" x2="109.01" y2="87.93"/><line class="cls-3" x1="87.93" y1="109.09" x2="87.93" y2="66.78"/></svg>